<svg xmlns="http://www.w3.org/2000/svg" width="122.838" height="28.154" viewBox="0 0 122.838 28.154"><g fill="#179C9C"><path d="M9.445 28.076V22.22l-3.577-3.5H0zM5.868 0v18.72h1.21V1.142zM11.725 0v18.72h2.35V2.284zM16.444 28.076V23.36l-4.72-4.64H7.08zM23.445 28.076v-3.498l-5.868-5.86h-3.5zM17.577 0v18.72h3.502V3.5zM28.154 4.643L23.444 0v18.72h4.71zM30.445 28.076V25.72l-7-7H21.08zM37.523 26.86L29.3 18.72h-1.146l9.37 9.356zM35.154 5.783L29.3 0v18.72h5.854z"/></g><path fill-rule="evenodd" clip-rule="evenodd" fill="#010101" d="M40.687 25.34l-1.07.076.078.227v.228l.076.23.08.152.076.228.078.227.077.154.154.156.143.15h2.664-.604l-.233-.078-.218-.072-.154-.078-.154-.077-.232-.075-.153-.152-.153-.153-.14-.152-.08-.15-.077-.155-.077-.226-.076-.23zM45.33 20.697H42.9l.143.078h.54l.156.075.217.078.157.074.154.152.154.075.152.23.078.15.065.23.078.228v.227l1.067-.076v-.306l-.077-.15-.077-.23-.076-.227-.077-.153-.064-.226h-.078z"/><path fill="#010101" d="M45.33 20.697H42.9l.143.078h.54l.156.075.217.078.157.074.154.152.154.075.152.23.078.15.065.23.078.228v.227l1.067-.076v-.306l-.077-.15-.077-.23-.076-.227-.077-.153-.064-.226h-.078z"/><path fill-rule="evenodd" clip-rule="evenodd" fill="#010101" d="M42.82 19.785h-.463l-.23.074h-.142l-.233.078-.23.074-.23.076-.155.078-.22.074-.154.153-.156.152-.154.152-.154.153-.066.152-.076.152-.077.23-.076.227v.84l.077.15.078.228.076.23h.065l.077.15.154.15.157.154.23.152.22.076v.078l.154.077h.154l.232.074.23.075.222.076.23.08.308.075.232.075.297.078.23.074h.232l.218.074.155.078h.08l.23.155.23.073.143.152.155.15.077.23.076.15.08.232v.074l-.08.23-.075.228-.077.152-.155.153-.143.152-.23.153-.23.078-.157.072h-.217l-.232.078h-3.127l.154.148.157.155.153.153.232.074.22.153h.075l.154.076.232.076h.154l.222.074h.23l.23.078h1.07l.14-.078h.232l.234-.074.23-.076.154-.076.065-.077.232-.076.155-.15.23-.152.156-.08.14-.227.077-.15.154-.153.08-.226.077-.154.076-.228v-.762l-.076-.23-.078-.227-.08-.23-.076-.154-.153-.148-.14-.153-.156-.154-.152-.15-.233-.075-.232-.155h-.065l-.078-.076-.152-.074h-.23l-.235-.078-.217-.074-.232-.08-.31-.075-.296-.074h-.232l-.31-.077-.228-.076-.222-.077-.23-.078-.155-.074-.153-.076-.076-.076-.077-.153-.14-.152-.077-.227v-.303l.076-.23.065-.227.154-.154.154-.152.077-.076.156-.074.23-.078.222-.075h.46l.31-.078h2.433l-.152-.152-.157-.152-.23-.077-.142-.15-.23-.078h-.078l-.152-.076-.235-.074-.217-.08h-.232l-.232-.073h-.23z"/><path fill="#010101" d="M42.82 19.785h-.463l-.23.074h-.142l-.233.078-.23.074-.23.076-.155.078-.22.074-.154.153-.156.152-.154.152-.154.153-.066.152-.076.152-.077.23-.076.227v.84l.077.15.078.228.076.23h.065l.077.15.154.15.157.154.23.152.22.076v.078l.154.077h.154l.232.074.23.075.222.076.23.08.308.075.232.075.297.078.23.074h.232l.218.074.155.078h.08l.23.155.23.073.143.152.155.15.077.23.076.15.08.232v.074l-.08.23-.075.228-.077.152-.155.153-.143.152-.23.153-.23.078-.157.072h-.217l-.232.078h-3.127l.154.148.157.155.153.153.232.074.22.153h.075l.154.076.232.076h.154l.222.074h.23l.23.078h1.07l.14-.078h.232l.234-.074.23-.076.154-.076.065-.077.232-.076.155-.15.23-.152.156-.08.14-.227.077-.15.154-.153.08-.226.077-.154.076-.228v-.762l-.076-.23-.078-.227-.08-.23-.076-.154-.153-.148-.14-.153-.156-.154-.152-.15-.233-.075-.232-.155h-.065l-.078-.076-.152-.074h-.23l-.235-.078-.217-.074-.232-.08-.31-.075-.296-.074h-.232l-.31-.077-.228-.076-.222-.077-.23-.078-.155-.074-.153-.076-.076-.076-.077-.153-.14-.152-.077-.227v-.303l.076-.23.065-.227.154-.154.154-.152.077-.076.156-.074.23-.078.222-.075h.46l.31-.078h2.433l-.152-.152-.157-.152-.23-.077-.142-.15-.23-.078h-.078l-.152-.076-.235-.074-.217-.08h-.232l-.232-.073h-.23z"/><path fill-rule="evenodd" clip-rule="evenodd" fill="#010101" d="M53.32 20.85h-2.585.374l.23.078h.373l.154.074.154.152.233.075.153.23.078.15.077.23.066.228v.608l-.065.226-.076.155-.154.152-.153.15-.156.152-.153.078-.154.074h-.218l-.232.076H48.6l4.566.155.155-.155.077-.228.142-.153.078-.227v-.23l.077-.15v-.99l-.077-.228-.08-.152-.075-.23-.066-.15z"/><path fill="#010101" d="M53.32 20.85h-2.585.374l.23.078h.373l.154.074.154.152.233.075.153.23.078.15.077.23.066.228v.608l-.065.226-.076.155-.154.152-.153.15-.156.152-.153.078-.154.074h-.218l-.232.076H48.6l4.566.155.155-.155.077-.228.142-.153.078-.227v-.23l.077-.15v-.99l-.077-.228-.08-.152-.075-.23-.066-.15z"/><path fill-rule="evenodd" clip-rule="evenodd" fill="#010101" d="M50.582 19.938h-3.05v8.064H48.6V24.73h2.586l.23-.076h.233l.217-.078h.232l.23-.074.154-.074.142-.078.155-.15.156-.08.154-.075.076-.15-4.566-.155v-2.89h4.72l-.154-.153-.152-.152-.157-.152-.153-.077-.22-.15-.154-.078h-.23l-.233-.076h-.078l-.22-.074h-.693z"/><path fill="#010101" d="M50.582 19.938h-3.05v8.064H48.6V24.73h2.586l.23-.076h.233l.217-.078h.232l.23-.074.154-.074.142-.078.155-.15.156-.08.154-.075.076-.15-4.566-.155v-2.89h4.72l-.154-.153-.152-.152-.157-.152-.153-.077-.22-.15-.154-.078h-.23l-.233-.076h-.078l-.22-.074h-.693z"/><g fill="#010101"><path fill-rule="evenodd" clip-rule="evenodd" d="M62.115 19.938H61.06v5.478l-.078.227v.228l-.076.153-.078.23-.076.153-.08.153-.075.073-.076.074-.153.078-.142.153-.155.078-.233.072h-.23l-.218.078h-.542l-2.432.076.153.153.155.152.218.076.155.15.154.077.154.076h.22l.153.076.23.074h.234l.232.078h.976l.232-.078h.232l.232-.074.143-.076.23-.076.152-.077.234-.076.155-.15.22-.152.154-.153.078-.154.154-.15.074-.23.156-.15v-.152l.077-.154v-.23l.066-.225v-.23l.075-.227v-.764z"/><path d="M62.115 19.938H61.06v5.478l-.078.227v.228l-.076.153-.078.23-.076.153-.08.153-.075.073-.076.074-.153.078-.142.153-.155.078-.233.072h-.23l-.218.078h-.542l-2.432.076.153.153.155.152.218.076.155.15.154.077.154.076h.22l.153.076.23.074h.234l.232.078h.976l.232-.078h.232l.232-.074.143-.076.23-.076.152-.077.234-.076.155-.15.22-.152.154-.153.078-.154.154-.15.074-.23.156-.15v-.152l.077-.154v-.23l.066-.225v-.23l.075-.227v-.764z"/><path fill-rule="evenodd" clip-rule="evenodd" d="M56.866 19.938H55.81v5.705l.066.228v.23l.077.152.077.228.077.153.078.228.154.156.076.226 2.432-.076h-.528l-.232-.078-.232-.072-.155-.078-.14-.077-.154-.153-.154-.148-.154-.232-.078-.15v-.23l-.077-.15-.077-.155v-1.067z"/><path d="M56.866 19.938H55.81v5.705l.066.228v.23l.077.152.077.228.077.153.078.228.154.156.076.226 2.432-.076h-.528l-.232-.078-.232-.072-.155-.078-.14-.077-.154-.153-.154-.148-.154-.232-.078-.15v-.23l-.077-.15-.077-.155v-1.067z"/><path fill-rule="evenodd" clip-rule="evenodd" d="M68.14 24.35l-1.907.078h.607l.076.074.23.074.157.078.063.076.155.153.156.152.23.15.077.155.156.15.06.23.157.15.154.23.154.228 1.068 1.674h1.288l-1.364-2.205-.155-.23-.154-.227-.154-.154-.14-.15-.156-.153-.154-.153v-.076l-.23-.078-.155-.148z"/><path d="M68.14 24.35l-1.907.078h.607l.076.074.23.074.157.078.063.076.155.153.156.152.23.15.077.155.156.15.06.23.157.15.154.23.154.228 1.068 1.674h1.288l-1.364-2.205-.155-.23-.154-.227-.154-.154-.14-.15-.156-.153-.154-.153v-.076l-.23-.078-.155-.148z"/><path fill-rule="evenodd" clip-rule="evenodd" d="M69.888 20.62l-2.29.23h.54l.22.078.23.074.154.076.154.076.155.153.067.228.075.153.078.226v.535l-.078.226-.14.152-.077.152-.156.153-.156.076-.23.15-.233.078h-.37l-.233.074H65.01h4.878l.14-.153.077-.15.157-.23.076-.152V22.6l.078-.23v-.38l-.078-.226v-.23l-.076-.227-.078-.23-.155-.15v-.077z"/><path d="M69.888 20.62l-2.29.23h.54l.22.078.23.074.154.076.154.076.155.153.067.228.075.153.078.226v.535l-.078.226-.14.152-.077.152-.156.153-.156.076-.23.15-.233.078h-.37l-.233.074H65.01h4.878l.14-.153.077-.15.157-.23.076-.152V22.6l.078-.23v-.38l-.078-.226v-.23l-.076-.227-.078-.23-.155-.15v-.077z"/><path fill-rule="evenodd" clip-rule="evenodd" d="M67.52 19.938h-3.577v8.064h1.068v-3.574h1.223l1.906-.078.14-.075h.23l.31-.076.155-.08.217-.075.154-.076.233-.152.152-.078.08-.15.076-.078H65.01V20.85h2.587l2.29-.23-.155-.15-.153-.154-.234-.076-.154-.074-.075-.078h-.22l-.155-.076h-.23l-.233-.074h-.45z"/><path d="M67.52 19.938h-3.577v8.064h1.068v-3.574h1.223l1.906-.078.14-.075h.23l.31-.076.155-.08.217-.075.154-.076.233-.152.152-.078.08-.15.076-.078H65.01V20.85h2.587l2.29-.23-.155-.15-.153-.154-.234-.076-.154-.074-.075-.078h-.22l-.155-.076h-.23l-.233-.074h-.45z"/><path fill-rule="evenodd" clip-rule="evenodd" d="M77.57 24.275h-2.587.605l.232.075h.153l.142.078.155.074.232.074.152.154.156.153.077.152.064.15.077.23v.532l-.076.23-.063.15-.077.153-.156.153-.23.152-.154.076-.22.078-.23.078h-.154l-.23.072h-2.357 4.566l.155-.15.065-.23.077-.15.078-.23.077-.228v-.23l.077-.227-.077-.227v-.152l-.077-.23-.078-.225-.077-.156-.14-.226z"/><path d="M77.57 24.275h-2.587.605l.232.075h.153l.142.078.155.074.232.074.152.154.156.153.077.152.064.15.077.23v.532l-.076.23-.063.15-.077.153-.156.153-.23.152-.154.076-.22.078-.23.078h-.154l-.23.072h-2.357 4.566l.155-.15.065-.23.077-.15.078-.23.077-.228v-.23l.077-.227-.077-.227v-.152l-.077-.23-.078-.225-.077-.156-.14-.226z"/><path fill-rule="evenodd" clip-rule="evenodd" d="M77.416 20.85H74.75h.155l.232.078h.683l.153.074.22.076.156.15.152.155.077.076.074.228v.226l.08.23-.08.075v.23l-.075.226-.078.152-.078.074-.154.155-.155.076-.22.076-.075.073h-.683l-.308.076h-1.75l3.947.078.155-.155.156-.15.154-.153.078-.152.076-.152.08-.227v-.915l-.08-.228-.076-.153-.154-.226z"/><path d="M77.416 20.85H74.75h.155l.232.078h.683l.153.074.22.076.156.15.152.155.077.076.074.228v.226l.08.23-.08.075v.23l-.075.226-.078.152-.078.074-.154.155-.155.076-.22.076-.075.073h-.683l-.308.076h-1.75l3.947.078.155-.155.156-.15.154-.153.078-.152.076-.152.08-.227v-.915l-.08-.228-.076-.153-.154-.226z"/><path fill-rule="evenodd" clip-rule="evenodd" d="M75.06 19.938h-3.05v8.064h3.81l.23-.076h.142l.232-.076h.078l.23-.077.22-.076.153-.074.233-.154.154-.156.154-.226H73.08v-2.813h4.49l-.154-.154-.154-.15-.235-.075-.14-.077-.233-.078v-.076l.233-.074.14-.152-3.948-.08V20.85h4.336l-.154-.153-.157-.152-.154-.152-.217-.153-.154-.074-.156-.078h-.232l-.14-.076-.232-.074h-.464z"/><path d="M75.06 19.938h-3.05v8.064h3.81l.23-.076h.142l.232-.076h.078l.23-.077.22-.076.153-.074.233-.154.154-.156.154-.226H73.08v-2.813h4.49l-.154-.154-.154-.15-.235-.075-.14-.077-.233-.078v-.076l.233-.074.14-.152-3.948-.08V20.85h4.336l-.154-.153-.157-.152-.154-.152-.217-.153-.154-.074-.156-.078h-.232l-.14-.076-.232-.074h-.464z"/><path fill-rule="evenodd" clip-rule="evenodd" d="M82.975 19.938h-1.147l-3.126 8.064h1.145l.915-2.436h3.343l-3.035-.912.913-2.36.077-.226.076-.228v-.23l.08-.15.062-.23.077-.228v-.227z"/><path d="M82.975 19.938h-1.147l-3.126 8.064h1.145l.915-2.436h3.343l-3.035-.912.913-2.36.077-.226.076-.228v-.23l.08-.15.062-.23.077-.228v-.227z"/><path fill-rule="evenodd" clip-rule="evenodd" d="M82.975 19.938l-.62.837.08.153.075.15v.23l.078.227.078.23.078.225.152.23.08.23.836 2.204H81.07l3.035.912.993 2.436h1.222z"/><path d="M82.975 19.938l-.62.837.08.153.075.15v.23l.078.227.078.23.078.225.152.23.08.23.836 2.204H81.07l3.035.912.993 2.436h1.222z"/><path fill-rule="evenodd" clip-rule="evenodd" d="M93.55 19.938h-1.068v6.314l-.076 1.75h1.145z"/><path d="M93.55 19.938h-1.068v6.314l-.076 1.75h1.145z"/><path fill-rule="evenodd" clip-rule="evenodd" d="M88.223 19.938h-1.066v8.064h.99v-6.314z"/><path d="M88.223 19.938h-1.066v8.064h.99v-6.314z"/><path fill-rule="evenodd" clip-rule="evenodd" d="M88.223 19.938l-.075 1.75 4.258 6.314.076-1.75z"/><path d="M88.223 19.938l-.075 1.75 4.258 6.314.076-1.75z"/><path fill-rule="evenodd" clip-rule="evenodd" d="M95.52 19.938h1.064v8.064H95.52z"/><path d="M95.52 19.938h1.064v8.064H95.52z"/><path fill-rule="evenodd" clip-rule="evenodd" d="M99.098 25.34l-.993.076v.455l.08.23.077.152.075.228.08.227.153.154.075.156.156.15h2.665-.617l-.22-.078-.153-.072-.233-.078-.155-.077-.23-.075-.14-.152-.157-.153-.154-.152-.077-.15-.08-.155-.076-.226-.076-.23z"/><path d="M99.098 25.34l-.993.076v.455l.08.23.077.152.075.228.08.227.153.154.075.156.156.15h2.665-.617l-.22-.078-.153-.072-.233-.078-.155-.077-.23-.075-.14-.152-.157-.153-.154-.152-.077-.15-.08-.155-.076-.226-.076-.23z"/><path fill-rule="evenodd" clip-rule="evenodd" d="M103.74 20.697h-2.43l.155.078h.527l.233.075.154.078.14.074.154.152.154.075.154.23.08.15.075.23.078.228.076.227.98-.076v-.306l-.064-.15v-.23l-.077-.227-.157-.153-.076-.226h-.08z"/><path d="M103.74 20.697h-2.43l.155.078h.527l.233.075.154.078.14.074.154.152.154.075.154.23.08.15.075.23.078.228.076.227.98-.076v-.306l-.064-.15v-.23l-.077-.227-.157-.153-.076-.226h-.08z"/><path fill-rule="evenodd" clip-rule="evenodd" d="M101.233 19.785h-.385l-.22.074h-.232l-.23.078-.233.074-.142.076-.23.078-.23.074-.156.153-.154.152-.14.152-.155.153-.08.152-.075.152-.077.23-.077.227v.84l.077.15.077.228.075.23h.08l.076.15.143.15.23.154.156.152.23.076v.078l.157.077h.14l.23.074.232.075.23.076.22.08.31.075.23.075.295.078.233.074h.232l.232.074.14.078h.08l.228.155.232.073.155.152.154.15.144.23v.15l.074.232v.074l-.074.23-.078.228-.065.152-.153.153-.155.152-.232.153-.152.078-.22.072h-.232l-.154.078h-3.19l.14.148.156.155.23.153.154.074.235.153h.074l.143.076.233.076h.153l.23.074h.22l.23.078h1.07l.232-.078h.14l.232-.074.23-.076.157-.076.077-.077.22-.076.23-.15.153-.152.157-.08.154-.227.08-.15.14-.153.078-.226.076-.154.078-.228v-.762l-.078-.23-.076-.227-.078-.23-.064-.154-.155-.148-.153-.153-.157-.154-.152-.15-.232-.075-.22-.155-.154-.076-.154-.074h-.23l-.156-.078-.217-.074-.31-.08-.232-.075-.296-.074h-.308l-.232-.077-.297-.076-.23-.077-.233-.078-.154-.074-.077-.076-.14-.076-.08-.153-.154-.152v-.227l-.076-.23v-.073l.076-.23.078-.227.157-.154.14-.152.076-.076.233-.074.153-.078.23-.075h.45l.31-.078h2.43l-.152-.152-.154-.152-.22-.077-.153-.15-.232-.078h-.078l-.152-.076-.22-.074-.232-.08h-.23l-.233-.073h-.218z"/><path d="M101.233 19.785h-.385l-.22.074h-.232l-.23.078-.233.074-.142.076-.23.078-.23.074-.156.153-.154.152-.14.152-.155.153-.08.152-.075.152-.077.23-.077.227v.84l.077.15.077.228.075.23h.08l.076.15.143.15.23.154.156.152.23.076v.078l.157.077h.14l.23.074.232.075.23.076.22.08.31.075.23.075.295.078.233.074h.232l.232.074.14.078h.08l.228.155.232.073.155.152.154.15.144.23v.15l.074.232v.074l-.074.23-.078.228-.065.152-.153.153-.155.152-.232.153-.152.078-.22.072h-.232l-.154.078h-3.19l.14.148.156.155.23.153.154.074.235.153h.074l.143.076.233.076h.153l.23.074h.22l.23.078h1.07l.232-.078h.14l.232-.074.23-.076.157-.076.077-.077.22-.076.23-.15.153-.152.157-.08.154-.227.08-.15.14-.153.078-.226.076-.154.078-.228v-.762l-.078-.23-.076-.227-.078-.23-.064-.154-.155-.148-.153-.153-.157-.154-.152-.15-.232-.075-.22-.155-.154-.076-.154-.074h-.23l-.156-.078-.217-.074-.31-.08-.232-.075-.296-.074h-.308l-.232-.077-.297-.076-.23-.077-.233-.078-.154-.074-.077-.076-.14-.076-.08-.153-.154-.152v-.227l-.076-.23v-.073l.076-.23.078-.227.157-.154.14-.152.076-.076.233-.074.153-.078.23-.075h.45l.31-.078h2.43l-.152-.152-.154-.152-.22-.077-.153-.15-.232-.078h-.078l-.152-.076-.22-.074-.232-.08h-.23l-.233-.073h-.218z"/><path fill-rule="evenodd" clip-rule="evenodd" d="M113.636 19.938h-1.375l-1.967 5.628-.08.305-.076.23-.077.228-.077.152-.08.227-.073.154-.53 1.142h.993l2.353-6.773z"/><path d="M113.636 19.938h-1.375l-1.967 5.628-.08.305-.076.23-.077.228-.077.152-.08.227-.073.154-.53 1.142h.993l2.353-6.773z"/><path fill-rule="evenodd" clip-rule="evenodd" d="M113.636 19.938l-.99 1.29v6.774h.99z"/><path d="M113.636 19.938l-.99 1.29v6.774h.99z"/><path fill-rule="evenodd" clip-rule="evenodd" d="M107.55 19.938h-1.61v8.064h1.07v-6.848z"/><path d="M107.55 19.938h-1.61v8.064h1.07v-6.848z"/><path fill-rule="evenodd" clip-rule="evenodd" d="M107.55 19.938l-.54 1.216 2.29 6.848.53-1.14v-.077l-.078-.226v-.154l-.076-.228-.08-.23-.14-.305z"/><path d="M107.55 19.938l-.54 1.216 2.29 6.848.53-1.14v-.077l-.078-.226v-.154l-.076-.228-.08-.23-.14-.305z"/><path fill-rule="evenodd" clip-rule="evenodd" d="M116.456 20.62l-.156.155-.154.153-.077.074-.156.152-.076.153-.155.152-.065.228-.077.152-.075.228-.078.15-.076.23-.078.228-.076.226v.23l-.078.227v1.216l.078.233v.225l.076.23.08.225.075.23.078.15.076.23v.078l.143.15.077.23.154.15.155.153.153.156.154.15.142.148 2.443-.072h-.31l-.23-.076h-.153l-.22-.078-.233-.072-.153-.078-.23-.153-.143-.078-.153-.148-.154-.154-.077-.078-.153-.15-.08-.155-.076-.152-.14-.227-.08-.153-.077-.226v-.23l-.077-.225v-.234l-.077-.226v-.532l.077-.228v-.533l.077-.23.077-.15v-.228l.08-.23.14-.152.077-.154.08-.15.152-.153.077-.15.154-.077.154-.154.22-.152.154-.076.233-.074.154-.078.22-.075.23-.078h.463z"/><path d="M116.456 20.62l-.156.155-.154.153-.077.074-.156.152-.076.153-.155.152-.065.228-.077.152-.075.228-.078.15-.076.23-.078.228-.076.226v.23l-.078.227v1.216l.078.233v.225l.076.23.08.225.075.23.078.15.076.23v.078l.143.15.077.23.154.15.155.153.153.156.154.15.142.148 2.443-.072h-.31l-.23-.076h-.153l-.22-.078-.233-.072-.153-.078-.23-.153-.143-.078-.153-.148-.154-.154-.077-.078-.153-.15-.08-.155-.076-.152-.14-.227-.08-.153-.077-.226v-.23l-.077-.225v-.234l-.077-.226v-.532l.077-.228v-.533l.077-.23.077-.15v-.228l.08-.23.14-.152.077-.154.08-.15.152-.153.077-.15.154-.077.154-.154.22-.152.154-.076.233-.074.154-.078.22-.075.23-.078h.463z"/><path fill-rule="evenodd" clip-rule="evenodd" d="M118.963 19.785h-.54l-.216.074h-.234l-.233.078-.152.074-.22.076-.155.078-.23.074-.155.153-.23.076-.142.15 2.507.077h.374l.232.078.23.075.22.078.154.074.232.076.154.15.155.155.153.152.142.153.156.152.076.228.154.15.077.23.078.152v.228l.077.23v.225l.077.23v.915l-.077.226v.23l-.076.225v.23l-.077.226-.077.153-.154.15-.076.23-.156.152-.077.154h-.065l-.153.153-.155.147-.154.154-.232.078-.154.078-.22.072-.23.078h-.154l-.232.076h-.22l-2.445.072.154.155.232.153.155.074.153.076.22.077.155.076.23.076.233.074h.22l.23.078h.916l.23-.078h.232l.22-.074.232-.076.152-.076.233-.077.218-.15.233-.154.153-.075.153-.153.154-.154.143-.15.154-.153.154-.226.154-.154.08-.228V26.1l.153-.153.076-.228.08-.154v-.226l.064-.23.077-.227V24.2l.078-.23-.077-.23v-.683l-.076-.23-.065-.227v-.23l-.08-.15-.075-.23-.154-.15v-.076l-.078-.23-.154-.15-.154-.23-.154-.152-.143-.152-.154-.153-.154-.152-.154-.076-.233-.154-.065-.076-.23-.074-.156-.078-.23-.076-.232-.074-.142-.08h-.232l-.23-.073h-.232z"/><path d="M118.963 19.785h-.54l-.216.074h-.234l-.233.078-.152.074-.22.076-.155.078-.23.074-.155.153-.23.076-.142.15 2.507.077h.374l.232.078.23.075.22.078.154.074.232.076.154.15.155.155.153.152.142.153.156.152.076.228.154.15.077.23.078.152v.228l.077.23v.225l.077.23v.915l-.077.226v.23l-.076.225v.23l-.077.226-.077.153-.154.15-.076.23-.156.152-.077.154h-.065l-.153.153-.155.147-.154.154-.232.078-.154.078-.22.072-.23.078h-.154l-.232.076h-.22l-2.445.072.154.155.232.153.155.074.153.076.22.077.155.076.23.076.233.074h.22l.23.078h.916l.23-.078h.232l.22-.074.232-.076.152-.076.233-.077.218-.15.233-.154.153-.075.153-.153.154-.154.143-.15.154-.153.154-.226.154-.154.08-.228V26.1l.153-.153.076-.228.08-.154v-.226l.064-.23.077-.227V24.2l.078-.23-.077-.23v-.683l-.076-.23-.065-.227v-.23l-.08-.15-.075-.23-.154-.15v-.076l-.078-.23-.154-.15-.154-.23-.154-.152-.143-.152-.154-.153-.154-.152-.154-.076-.233-.154-.065-.076-.23-.074-.156-.078-.23-.076-.232-.074-.142-.08h-.232l-.23-.073h-.232z"/></g></svg>