<svg xmlns="http://www.w3.org/2000/svg" width="230" height="44.995" viewBox="0 0 230 44.995"><path opacity=".2" stroke="#989898" stroke-width="2" stroke-miterlimit="10" fill="none" d="M146.88 36.403h67.48M15.64 36.403H83.4"/><g fill="#9C9C9B"><path d="M12.026 17.857c-.62.992-1.357 1.725-2.217 2.2-.862.478-1.875.714-3.038.714-2.035 0-3.673-.673-4.914-2.02C.62 17.407 0 15.628 0 13.41 0 11.14.62 9.342 1.858 8.01 3.1 6.68 4.778 6.014 6.892 6.014c1.115 0 2.108.256 2.978.765.87.51 1.62 1.278 2.247 2.3V6.377h4.8v1.867h-2.37v11.314c0 2.225-.58 3.873-1.74 4.942-1.16 1.066-2.952 1.6-5.383 1.6-2.115 0-3.677-.338-4.683-1.016-1.006-.678-1.557-1.762-1.647-3.25H3.6c.17.85.542 1.463 1.115 1.836.572.377 1.434.565 2.59.565 1.698 0 2.91-.358 3.635-1.073.724-.71 1.087-1.914 1.087-3.604v-1.7zm0-4.36c0-1.688-.428-3.046-1.283-4.067C9.89 8.408 8.76 7.896 7.365 7.896c-1.408 0-2.542.502-3.402 1.51-.86 1.01-1.29 2.342-1.29 4.002 0 1.64.427 2.945 1.282 3.916.854.973 1.99 1.46 3.41 1.46 1.396 0 2.523-.483 3.378-1.45.856-.97 1.283-2.246 1.283-3.836zM29.732 16.143h2.354c-.326 1.578-1.065 2.773-2.223 3.582-1.16.81-2.697 1.213-4.61 1.213-2.217 0-3.963-.666-5.238-2.002-1.276-1.338-1.914-3.158-1.914-5.465 0-2.24.663-4.04 1.985-5.407 1.318-1.365 3.062-2.05 5.23-2.05 2.295 0 4.068.702 5.314 2.103 1.244 1.402 1.866 3.404 1.866 6.006H20.774c.042 1.53.467 2.727 1.275 3.592s1.908 1.297 3.294 1.297c1.206 0 2.188-.25 2.954-.75.765-.502 1.243-1.21 1.434-2.117zm-8.896-3.918h8.958c-.17-1.43-.642-2.523-1.41-3.28-.773-.76-1.795-1.14-3.07-1.14-1.284 0-2.324.393-3.12 1.178-.794.785-1.247 1.863-1.358 3.242zM34.808 20.56v-4.888h2.02c.18 1.053.622 1.865 1.32 2.443.7.576 1.595.865 2.69.865 1.02 0 1.856-.23 2.505-.69.646-.462.97-1.04.97-1.74 0-.565-.218-1.003-.653-1.313-.435-.307-1.17-.533-2.2-.674l-2.64-.38c-1.236-.185-2.183-.597-2.843-1.237-.657-.643-.986-1.477-.986-2.5 0-1.312.5-2.383 1.496-3.203 1-.82 2.302-1.23 3.91-1.23.982 0 1.823.16 2.52.478.698.32 1.28.813 1.747 1.483V6.377h1.806v4.693h-1.746c-.08-.973-.47-1.754-1.162-2.348-.694-.592-1.57-.89-2.635-.89-1.073 0-1.918.212-2.526.632-.61.422-.917.99-.917 1.71 0 .485.16.87.483 1.16.325.29.817.485 1.474.585l2.49.335c1.69.24 2.915.697 3.675 1.365s1.138 1.625 1.138 2.87c0 1.325-.49 2.4-1.464 3.218-.98.818-2.282 1.23-3.91 1.23-1.003 0-1.886-.18-2.65-.538-.764-.36-1.425-.908-1.982-1.648v1.81h-1.93zM51.317 8.244h-2.794V6.377h2.794V3.355l2.52-.955v3.977h4.42v1.867h-4.42v8.777c0 .83.1 1.374.296 1.632.197.26.555.39 1.07.39.627 0 1.09-.216 1.39-.647.298-.43.447-1.094.447-1.996h1.93v.274c0 1.355-.324 2.404-.972 3.148-.648.746-1.57 1.115-2.764 1.115-1.366 0-2.36-.28-2.983-.834-.623-.557-.933-1.44-.933-2.656V8.244zM71.15 20.56v-2.43c-.567.962-1.243 1.67-2.026 2.126-.785.455-1.713.682-2.786.682-1.69 0-3.018-.395-3.98-1.19-.96-.794-1.44-1.88-1.44-3.257 0-1.497.614-2.624 1.844-3.378 1.23-.752 3.065-1.13 5.505-1.13.335 0 .997.01 1.988.03.336.01.593.02.774.03v-1.063c0-1.075-.277-1.856-.836-2.35-.556-.49-1.446-.733-2.673-.733-1.05 0-1.843.215-2.375.645-.53.43-.86 1.11-.994 2.043H61.48c.163-1.51.77-2.646 1.823-3.416s2.53-1.155 4.436-1.155c1.922 0 3.37.414 4.348 1.244.978.83 1.467 2.07 1.467 3.72v7.652h2.353v1.93H71.15zm.943-20.3c-.254.95-.633 1.676-1.142 2.17-.502.496-1.12.744-1.85.744-.17 0-.342-.012-.51-.037s-.34-.064-.523-.113l-1.198-.412c-.133-.04-.264-.07-.39-.09-.125-.022-.26-.032-.402-.032-.353 0-.65.078-.895.236-.243.156-.44.402-.592.734h-1.306c.224-.928.585-1.635 1.087-2.117.502-.48 1.135-.72 1.906-.72.173 0 .333.01.486.03.15.02.286.05.41.09l1.213.44c.162.05.325.09.485.114.162.023.31.04.44.04.364 0 .67-.093.91-.274.244-.184.432-.45.564-.805h1.31zm-1.065 13.68c-.485-.032-.93-.054-1.327-.07-.4-.015-.747-.022-1.04-.022-1.742 0-3.026.234-3.856.7-.83.466-1.244 1.183-1.244 2.155 0 .678.272 1.227.82 1.646.545.42 1.27.63 2.17.63 1.378 0 2.468-.424 3.272-1.275.804-.852 1.206-2.004 1.206-3.46v-.304zM84.09 20.938c-2.226 0-3.985-.668-5.274-2.01-1.29-1.34-1.938-3.162-1.938-5.457 0-2.3.646-4.11 1.938-5.437 1.29-1.326 3.05-1.99 5.275-1.99 2.23 0 3.982.662 5.263 1.982s1.92 3.135 1.92 5.445c0 2.307-.643 4.127-1.928 5.465-1.287 1.336-3.036 2.003-5.254 2.003zm0-2.034c1.417 0 2.53-.48 3.334-1.44.805-.962 1.207-2.306 1.207-4.026 0-1.72-.398-3.062-1.197-4.023-.8-.96-1.913-1.44-3.342-1.44-1.426 0-2.54.48-3.34 1.44-.8.96-1.2 2.305-1.2 4.023 0 1.732.397 3.074 1.193 4.03.794.958 1.91 1.436 3.348 1.436z"/></g><g fill="#010101"><path d="M108.916 6.377V18.69h2.367v1.87h-4.797V18.1c-.657.97-1.38 1.688-2.172 2.148-.79.46-1.7.69-2.732.69-1.7 0-2.955-.413-3.766-1.235-.81-.826-1.215-2.115-1.215-3.865V8.305h-2.353V6.377h4.874v9.46c0 1.073.26 1.88.775 2.42.515.542 1.287.813 2.31.813 1.263 0 2.276-.406 3.042-1.22.766-.817 1.146-1.9 1.146-3.257V8.305h-2.64V6.377h5.163zM117.634 18.63h3.008v1.93h-7.896v-1.93h2.37V8.245h-2.37V6.377h4.8v2.37c.544-.974 1.197-1.677 1.956-2.118.76-.44 1.7-.663 2.826-.663.2 0 .353.004.455.008.1.006.195.018.287.04v2.29c-.07-.01-.217-.025-.438-.053-.225-.025-.396-.037-.518-.037-1.497 0-2.62.45-3.363 1.344-.742.894-1.115 2.24-1.115 4.03v5.04zM126.506 2.22h-2.37V.35h4.875v8.73c.63-.992 1.37-1.727 2.226-2.2.854-.478 1.87-.714 3.043-.714 2.032 0 3.67.672 4.91 2.018 1.242 1.348 1.86 3.13 1.86 5.346 0 2.268-.618 4.068-1.86 5.406-1.24 1.336-2.922 2.002-5.048 2.002-1.103 0-2.09-.256-2.967-.773-.876-.516-1.628-1.283-2.256-2.307v2.703h-4.783v-1.93h2.37V2.22zm2.505 11.218c0 1.69.43 3.047 1.29 4.07.86 1.023 1.99 1.533 3.386 1.533 1.407 0 2.542-.5 3.402-1.503.86-1.002 1.29-2.336 1.29-4.008 0-1.632-.43-2.935-1.283-3.91-.854-.978-1.99-1.466-3.41-1.466-1.373 0-2.497.488-3.37 1.465-.87.976-1.304 2.25-1.304 3.818zM153.52 20.56v-2.43c-.567.962-1.242 1.67-2.026 2.126s-1.716.682-2.785.682c-1.692 0-3.02-.395-3.98-1.19-.963-.794-1.442-1.88-1.442-3.257 0-1.497.615-2.624 1.845-3.378 1.23-.752 3.064-1.13 5.503-1.13.333 0 .996.01 1.99.03.332.01.592.02.774.03v-1.063c0-1.075-.278-1.856-.836-2.35-.557-.49-1.448-.733-2.672-.733-1.054 0-1.845.215-2.376.645-.532.43-.863 1.11-.995 2.043h-2.67c.162-1.51.77-2.646 1.82-3.416 1.053-.77 2.53-1.155 4.435-1.155 1.922 0 3.373.414 4.35 1.244.978.83 1.464 2.07 1.464 3.72v7.652h2.353v1.93h-4.752zm-.12-6.62c-.49-.032-.93-.054-1.33-.07-.398-.015-.746-.022-1.042-.022-1.74 0-3.024.234-3.854.7-.83.466-1.246 1.183-1.246 2.155 0 .678.274 1.227.82 1.646.547.42 1.27.63 2.172.63 1.375 0 2.466-.424 3.272-1.275.804-.852 1.206-2.004 1.206-3.46v-.304zM159.552 20.56v-1.93h2.368V8.245h-2.368V6.377h4.8v2.46c.656-.97 1.38-1.685 2.17-2.14.79-.457 1.7-.684 2.733-.684 1.7 0 2.956.408 3.766 1.23.81.82 1.215 2.106 1.215 3.856v7.53h2.4v1.93h-7.532v-1.93h2.61V11.1c0-1.074-.257-1.88-.774-2.422-.517-.54-1.286-.81-2.31-.81-1.264 0-2.278.403-3.043 1.222-.763.812-1.146 1.898-1.146 3.256v6.285h2.644v1.93h-7.532zM188.252 20.56v-2.43c-.566.962-1.24 1.67-2.026 2.126-.784.455-1.714.682-2.785.682-1.69 0-3.017-.395-3.978-1.19-.96-.794-1.44-1.88-1.44-3.257 0-1.497.613-2.624 1.843-3.378 1.23-.752 3.064-1.13 5.505-1.13.333 0 .996.01 1.987.03.335.01.593.02.775.03v-1.063c0-1.075-.278-1.856-.835-2.35-.556-.49-1.448-.733-2.67-.733-1.055 0-1.848.215-2.377.645-.533.43-.865 1.11-.995 2.043h-2.673c.162-1.51.768-2.646 1.822-3.416s2.528-1.155 4.434-1.155c1.923 0 3.372.414 4.35 1.244.977.83 1.466 2.07 1.466 3.72v7.652h2.352v1.93h-4.754zm-.12-6.62c-.486-.032-.93-.054-1.33-.07s-.744-.022-1.04-.022c-1.74 0-3.026.234-3.854.7-.832.466-1.246 1.183-1.246 2.155 0 .678.273 1.227.82 1.646.545.42 1.27.63 2.17.63 1.377 0 2.47-.424 3.273-1.275.804-.852 1.206-2.004 1.206-3.46v-.304z"/></g><g fill="#C72026"><path d="M197.128 20.56v-6.91h2.278c.06 1.63.5 2.862 1.322 3.698.818.836 1.993 1.254 3.52 1.254 1.317 0 2.366-.305 3.15-.912.785-.605 1.176-1.412 1.176-2.414 0-.758-.245-1.38-.735-1.867-.49-.487-1.386-.962-2.682-1.43l-4.206-1.534c-1.346-.475-2.33-1.096-2.952-1.865-.62-.77-.935-1.75-.935-2.946 0-1.66.592-3.012 1.77-4.06C200.016.523 201.554 0 203.446 0c1.01 0 1.933.17 2.763.51.83.338 1.618.86 2.367 1.57V.35h2.308v6.59h-2.26c-.062-1.527-.515-2.72-1.36-3.576-.845-.854-2.003-1.283-3.47-1.283-1.174 0-2.134.308-2.876.92-.746.612-1.116 1.384-1.116 2.317 0 .646.22 1.193.653 1.64.436.442 1.135.833 2.096 1.167l5.1 1.807c1.296.468 2.25 1.108 2.862 1.923.613.814.92 1.85.92 3.104 0 1.834-.6 3.27-1.8 4.312-1.2 1.044-2.857 1.563-4.974 1.563-1.183 0-2.217-.2-3.104-.598-.884-.4-1.623-1.004-2.21-1.814v2.142h-2.216zM219.056 18.48h3.567v2.08h-9.082v-2.08h2.78V2.34h-2.78V.35h8.748c1.628 0 2.855.115 3.683.342.823.227 1.546.61 2.162 1.145.618.55 1.084 1.193 1.396 1.938.315.743.472 1.59.472 2.54 0 1.995-.622 3.49-1.868 4.48-1.243.992-3.123 1.488-5.632 1.488h-3.444v6.197zm0-16.14v7.895h3.444c1.66 0 2.862-.312 3.605-.934.745-.622 1.115-1.616 1.115-2.983 0-1.377-.394-2.385-1.184-3.02-.79-.64-2.03-.956-3.72-.956h-3.26z"/></g><text transform="translate(91.18 41.586)" fill="#333" font-family="'Museo-500'" font-size="14.384">MAPAS</text></svg>