<?xml version="1.0" encoding="utf-8"?>
<!-- Generator: Adobe Illustrator 16.0.0, SVG Export Plug-In . SVG Version: 6.00 Build 0)  -->
<!DOCTYPE svg PUBLIC "-//W3C//DTD SVG 1.1//EN" "http://www.w3.org/Graphics/SVG/1.1/DTD/svg11.dtd">
<svg version="1.1" id="Layer_1" xmlns="http://www.w3.org/2000/svg" xmlns:xlink="http://www.w3.org/1999/xlink" x="0px" y="0px"
	 width="122.838px" height="28.154px" viewBox="0 0 122.838 28.154" enable-background="new 0 0 122.838 28.154"
	 xml:space="preserve">
<g>
	<g>
		<polygon fill="#179C9C" points="9.445,28.076 9.445,22.219 5.868,18.719 0,18.719 		"/>
		<polygon fill="#179C9C" points="5.868,0 5.868,18.719 7.079,18.719 7.079,1.143 		"/>
		<polygon fill="#179C9C" points="11.725,0 11.725,18.719 14.076,18.719 14.076,2.285 		"/>
		<polygon fill="#179C9C" points="16.444,28.076 16.444,23.361 11.725,18.719 7.079,18.719 		"/>
		<polygon fill="#179C9C" points="23.445,28.076 23.445,24.578 17.577,18.719 14.076,18.719 		"/>
		<polygon fill="#179C9C" points="17.577,0 17.577,18.719 21.079,18.719 21.079,3.5 		"/>
		<polygon fill="#179C9C" points="28.154,4.643 23.445,0 23.445,18.719 28.154,18.719 		"/>
		<polygon fill="#179C9C" points="30.445,28.076 30.445,25.721 23.445,18.719 21.079,18.719 		"/>
		<polygon fill="#179C9C" points="37.523,26.861 29.301,18.719 28.154,18.719 37.523,28.076 		"/>
		<polygon fill="#179C9C" points="35.154,5.783 29.301,0 29.301,18.719 35.154,18.719 		"/>
	</g>
	<polygon fill-rule="evenodd" clip-rule="evenodd" fill="#010101" points="40.687,25.34 39.616,25.416 39.695,25.643 39.695,25.871 
		39.771,26.1 39.85,26.252 39.926,26.48 40.004,26.707 40.081,26.861 40.234,27.016 40.377,27.166 43.041,27.166 42.436,27.166 
		42.203,27.088 41.985,27.016 41.831,26.938 41.676,26.861 41.444,26.785 41.291,26.633 41.137,26.48 40.996,26.328 40.917,26.178 
		40.84,26.023 40.763,25.797 40.687,25.566 	"/>
	<polygon fill-rule="evenodd" clip-rule="evenodd" fill="#010101" points="45.331,20.697 42.898,20.697 43.041,20.775 43.58,20.775 
		43.736,20.85 43.953,20.928 44.11,21.002 44.264,21.154 44.418,21.229 44.57,21.459 44.648,21.611 44.713,21.84 44.791,22.068 
		44.791,22.295 45.857,22.219 45.857,21.914 45.78,21.764 45.703,21.535 45.627,21.307 45.55,21.154 45.486,20.928 45.408,20.928 	
		"/>
	<polygon fill="#010101" points="45.331,20.697 42.898,20.697 43.041,20.775 43.58,20.775 43.736,20.85 43.953,20.928 44.11,21.002 
		44.264,21.154 44.418,21.229 44.57,21.459 44.648,21.611 44.713,21.84 44.791,22.068 44.791,22.295 45.857,22.219 45.857,21.914 
		45.78,21.764 45.703,21.535 45.627,21.307 45.55,21.154 45.486,20.928 45.408,20.928 	"/>
	<polygon fill-rule="evenodd" clip-rule="evenodd" fill="#010101" points="42.82,19.785 42.357,19.785 42.128,19.859 41.985,19.859 
		41.752,19.938 41.521,20.012 41.291,20.088 41.137,20.166 40.917,20.24 40.763,20.393 40.607,20.545 40.453,20.697 40.299,20.85 
		40.234,21.002 40.158,21.154 40.081,21.383 40.004,21.611 40.004,22.449 40.081,22.6 40.158,22.828 40.234,23.057 40.299,23.057 
		40.377,23.209 40.531,23.359 40.687,23.512 40.917,23.664 41.137,23.74 41.137,23.818 41.291,23.895 41.444,23.895 41.676,23.969 
		41.906,24.045 42.128,24.121 42.357,24.199 42.666,24.275 42.898,24.35 43.195,24.428 43.426,24.502 43.657,24.502 43.875,24.576 
		44.03,24.654 44.11,24.654 44.34,24.809 44.57,24.883 44.713,25.035 44.868,25.186 44.945,25.416 45.021,25.566 45.1,25.797 
		45.1,25.871 45.021,26.1 44.945,26.328 44.868,26.48 44.713,26.633 44.57,26.785 44.34,26.938 44.11,27.016 43.953,27.088 
		43.736,27.088 43.504,27.166 40.377,27.166 40.531,27.314 40.687,27.469 40.84,27.623 41.072,27.697 41.291,27.85 41.367,27.85 
		41.521,27.926 41.752,28.002 41.906,28.002 42.128,28.076 42.357,28.076 42.588,28.154 43.657,28.154 43.799,28.076 44.03,28.076 
		44.264,28.002 44.493,27.926 44.648,27.85 44.713,27.773 44.945,27.697 45.1,27.547 45.331,27.395 45.486,27.314 45.627,27.088 
		45.703,26.938 45.857,26.785 45.936,26.559 46.014,26.406 46.09,26.178 46.09,25.416 46.014,25.186 45.936,24.959 45.857,24.73 
		45.78,24.576 45.627,24.428 45.486,24.275 45.331,24.121 45.178,23.969 44.945,23.895 44.713,23.74 44.648,23.74 44.57,23.664 
		44.418,23.59 44.188,23.59 43.953,23.512 43.736,23.438 43.504,23.359 43.195,23.283 42.898,23.209 42.666,23.209 42.357,23.133 
		42.128,23.057 41.906,22.98 41.676,22.902 41.521,22.828 41.367,22.752 41.291,22.676 41.213,22.523 41.072,22.371 40.996,22.143 
		40.996,21.84 41.072,21.611 41.137,21.383 41.291,21.229 41.444,21.078 41.521,21.002 41.676,20.928 41.906,20.85 42.128,20.775 
		42.588,20.775 42.898,20.697 45.331,20.697 45.178,20.545 45.021,20.393 44.791,20.316 44.648,20.166 44.418,20.088 44.34,20.088 
		44.188,20.012 43.953,19.938 43.736,19.859 43.504,19.859 43.272,19.785 43.041,19.785 	"/>
	<polygon fill="#010101" points="42.82,19.785 42.357,19.785 42.128,19.859 41.985,19.859 41.752,19.938 41.521,20.012 
		41.291,20.088 41.137,20.166 40.917,20.24 40.763,20.393 40.607,20.545 40.453,20.697 40.299,20.85 40.234,21.002 40.158,21.154 
		40.081,21.383 40.004,21.611 40.004,22.449 40.081,22.6 40.158,22.828 40.234,23.057 40.299,23.057 40.377,23.209 40.531,23.359 
		40.687,23.512 40.917,23.664 41.137,23.74 41.137,23.818 41.291,23.895 41.444,23.895 41.676,23.969 41.906,24.045 42.128,24.121 
		42.357,24.199 42.666,24.275 42.898,24.35 43.195,24.428 43.426,24.502 43.657,24.502 43.875,24.576 44.03,24.654 44.11,24.654 
		44.34,24.809 44.57,24.883 44.713,25.035 44.868,25.186 44.945,25.416 45.021,25.566 45.1,25.797 45.1,25.871 45.021,26.1 
		44.945,26.328 44.868,26.48 44.713,26.633 44.57,26.785 44.34,26.938 44.11,27.016 43.953,27.088 43.736,27.088 43.504,27.166 
		40.377,27.166 40.531,27.314 40.687,27.469 40.84,27.623 41.072,27.697 41.291,27.85 41.367,27.85 41.521,27.926 41.752,28.002 
		41.906,28.002 42.128,28.076 42.357,28.076 42.588,28.154 43.657,28.154 43.799,28.076 44.03,28.076 44.264,28.002 44.493,27.926 
		44.648,27.85 44.713,27.773 44.945,27.697 45.1,27.547 45.331,27.395 45.486,27.314 45.627,27.088 45.703,26.938 45.857,26.785 
		45.936,26.559 46.014,26.406 46.09,26.178 46.09,25.416 46.014,25.186 45.936,24.959 45.857,24.73 45.78,24.576 45.627,24.428 
		45.486,24.275 45.331,24.121 45.178,23.969 44.945,23.895 44.713,23.74 44.648,23.74 44.57,23.664 44.418,23.59 44.188,23.59 
		43.953,23.512 43.736,23.438 43.504,23.359 43.195,23.283 42.898,23.209 42.666,23.209 42.357,23.133 42.128,23.057 41.906,22.98 
		41.676,22.902 41.521,22.828 41.367,22.752 41.291,22.676 41.213,22.523 41.072,22.371 40.996,22.143 40.996,21.84 41.072,21.611 
		41.137,21.383 41.291,21.229 41.444,21.078 41.521,21.002 41.676,20.928 41.906,20.85 42.128,20.775 42.588,20.775 42.898,20.697 
		45.331,20.697 45.178,20.545 45.021,20.393 44.791,20.316 44.648,20.166 44.418,20.088 44.34,20.088 44.188,20.012 43.953,19.938 
		43.736,19.859 43.504,19.859 43.272,19.785 43.041,19.785 	"/>
	<polygon fill-rule="evenodd" clip-rule="evenodd" fill="#010101" points="53.321,20.85 50.735,20.85 51.109,20.85 51.34,20.928 
		51.713,20.928 51.867,21.002 52.021,21.154 52.253,21.229 52.406,21.459 52.484,21.611 52.561,21.84 52.626,22.068 52.626,22.676 
		52.561,22.902 52.484,23.057 52.33,23.209 52.177,23.359 52.021,23.512 51.867,23.59 51.713,23.664 51.495,23.664 51.263,23.74 
		48.6,23.74 53.166,23.895 53.321,23.74 53.397,23.512 53.539,23.359 53.618,23.133 53.618,22.902 53.695,22.752 53.695,21.764 
		53.618,21.535 53.539,21.383 53.463,21.154 53.397,21.002 	"/>
	<polygon fill="#010101" points="53.321,20.85 50.735,20.85 51.109,20.85 51.34,20.928 51.713,20.928 51.867,21.002 52.021,21.154 
		52.253,21.229 52.406,21.459 52.484,21.611 52.561,21.84 52.626,22.068 52.626,22.676 52.561,22.902 52.484,23.057 52.33,23.209 
		52.177,23.359 52.021,23.512 51.867,23.59 51.713,23.664 51.495,23.664 51.263,23.74 48.6,23.74 53.166,23.895 53.321,23.74 
		53.397,23.512 53.539,23.359 53.618,23.133 53.618,22.902 53.695,22.752 53.695,21.764 53.618,21.535 53.539,21.383 53.463,21.154 
		53.397,21.002 	"/>
	<polygon fill-rule="evenodd" clip-rule="evenodd" fill="#010101" points="50.582,19.938 47.531,19.938 47.531,28.002 48.6,28.002 
		48.6,24.73 51.186,24.73 51.416,24.654 51.649,24.654 51.867,24.576 52.099,24.576 52.33,24.502 52.484,24.428 52.626,24.35 
		52.781,24.199 52.936,24.121 53.09,24.045 53.166,23.895 48.6,23.74 48.6,20.85 53.321,20.85 53.166,20.697 53.014,20.545 
		52.857,20.393 52.704,20.316 52.484,20.166 52.33,20.088 52.099,20.088 51.867,20.012 51.789,20.012 51.57,19.938 50.877,19.938 	
		"/>
	<polygon fill="#010101" points="50.582,19.938 47.531,19.938 47.531,28.002 48.6,28.002 48.6,24.73 51.186,24.73 51.416,24.654 
		51.649,24.654 51.867,24.576 52.099,24.576 52.33,24.502 52.484,24.428 52.626,24.35 52.781,24.199 52.936,24.121 53.09,24.045 
		53.166,23.895 48.6,23.74 48.6,20.85 53.321,20.85 53.166,20.697 53.014,20.545 52.857,20.393 52.704,20.316 52.484,20.166 
		52.33,20.088 52.099,20.088 51.867,20.012 51.789,20.012 51.57,19.938 50.877,19.938 	"/>
	<g>
		<polygon fill-rule="evenodd" clip-rule="evenodd" fill="#010101" points="62.115,19.938 61.061,19.938 61.061,25.416 
			60.982,25.643 60.982,25.871 60.906,26.023 60.828,26.252 60.752,26.406 60.672,26.559 60.597,26.633 60.521,26.707 
			60.367,26.785 60.225,26.938 60.07,27.016 59.837,27.088 59.607,27.088 59.389,27.166 58.848,27.166 56.416,27.242 56.569,27.395 
			56.725,27.547 56.943,27.623 57.098,27.773 57.252,27.85 57.406,27.926 57.625,27.926 57.779,28.002 58.011,28.076 58.244,28.076 
			58.476,28.154 59.452,28.154 59.684,28.076 59.916,28.076 60.148,28.002 60.291,27.926 60.521,27.85 60.672,27.773 60.906,27.697 
			61.061,27.547 61.279,27.395 61.434,27.242 61.512,27.088 61.666,26.938 61.74,26.707 61.896,26.559 61.896,26.406 61.973,26.252 
			61.973,26.023 62.039,25.797 62.039,25.566 62.115,25.34 62.115,24.576 		"/>
		<polygon fill="#010101" points="62.115,19.938 61.061,19.938 61.061,25.416 60.982,25.643 60.982,25.871 60.906,26.023 
			60.828,26.252 60.752,26.406 60.672,26.559 60.597,26.633 60.521,26.707 60.367,26.785 60.225,26.938 60.07,27.016 59.837,27.088 
			59.607,27.088 59.389,27.166 58.848,27.166 56.416,27.242 56.569,27.395 56.725,27.547 56.943,27.623 57.098,27.773 57.252,27.85 
			57.406,27.926 57.625,27.926 57.779,28.002 58.011,28.076 58.244,28.076 58.476,28.154 59.452,28.154 59.684,28.076 
			59.916,28.076 60.148,28.002 60.291,27.926 60.521,27.85 60.672,27.773 60.906,27.697 61.061,27.547 61.279,27.395 61.434,27.242 
			61.512,27.088 61.666,26.938 61.74,26.707 61.896,26.559 61.896,26.406 61.973,26.252 61.973,26.023 62.039,25.797 62.039,25.566 
			62.115,25.34 62.115,24.576 		"/>
		<polygon fill-rule="evenodd" clip-rule="evenodd" fill="#010101" points="56.866,19.938 55.81,19.938 55.81,25.643 55.876,25.871 
			55.876,26.1 55.953,26.252 56.03,26.48 56.107,26.633 56.185,26.861 56.339,27.016 56.416,27.242 58.848,27.166 58.32,27.166 
			58.088,27.088 57.856,27.016 57.701,26.938 57.561,26.861 57.406,26.707 57.252,26.559 57.098,26.328 57.02,26.178 57.02,25.947 
			56.943,25.797 56.866,25.643 56.866,24.576 		"/>
		<polygon fill="#010101" points="56.866,19.938 55.81,19.938 55.81,25.643 55.876,25.871 55.876,26.1 55.953,26.252 56.03,26.48 
			56.107,26.633 56.185,26.861 56.339,27.016 56.416,27.242 58.848,27.166 58.32,27.166 58.088,27.088 57.856,27.016 57.701,26.938 
			57.561,26.861 57.406,26.707 57.252,26.559 57.098,26.328 57.02,26.178 57.02,25.947 56.943,25.797 56.866,25.643 56.866,24.576 
					"/>
		<polygon fill-rule="evenodd" clip-rule="evenodd" fill="#010101" points="68.139,24.35 66.233,24.428 66.84,24.428 66.916,24.502 
			67.147,24.576 67.303,24.654 67.366,24.73 67.521,24.883 67.676,25.035 67.905,25.186 67.983,25.34 68.139,25.49 68.201,25.719 
			68.357,25.871 68.511,26.1 68.664,26.328 69.732,28.002 71.02,28.002 69.656,25.797 69.501,25.566 69.346,25.34 69.192,25.186 
			69.051,25.035 68.896,24.883 68.742,24.73 68.742,24.654 68.511,24.576 68.357,24.428 		"/>
		<polygon fill="#010101" points="68.139,24.35 66.233,24.428 66.84,24.428 66.916,24.502 67.147,24.576 67.303,24.654 
			67.366,24.73 67.521,24.883 67.676,25.035 67.905,25.186 67.983,25.34 68.139,25.49 68.201,25.719 68.357,25.871 68.511,26.1 
			68.664,26.328 69.732,28.002 71.02,28.002 69.656,25.797 69.501,25.566 69.346,25.34 69.192,25.186 69.051,25.035 68.896,24.883 
			68.742,24.73 68.742,24.654 68.511,24.576 68.357,24.428 		"/>
		<polygon fill-rule="evenodd" clip-rule="evenodd" fill="#010101" points="69.888,20.619 67.597,20.85 68.139,20.85 68.357,20.928 
			68.587,21.002 68.742,21.078 68.896,21.154 69.051,21.307 69.117,21.535 69.192,21.688 69.27,21.914 69.27,22.449 69.192,22.676 
			69.051,22.828 68.975,22.98 68.819,23.133 68.664,23.209 68.434,23.359 68.201,23.438 67.83,23.438 67.597,23.512 65.011,23.512 
			69.888,23.512 70.029,23.359 70.105,23.209 70.262,22.98 70.338,22.828 70.338,22.6 70.416,22.371 70.416,21.99 70.338,21.764 
			70.338,21.535 70.262,21.307 70.184,21.078 70.029,20.928 70.029,20.85 		"/>
		<polygon fill="#010101" points="69.888,20.619 67.597,20.85 68.139,20.85 68.357,20.928 68.587,21.002 68.742,21.078 
			68.896,21.154 69.051,21.307 69.117,21.535 69.192,21.688 69.27,21.914 69.27,22.449 69.192,22.676 69.051,22.828 68.975,22.98 
			68.819,23.133 68.664,23.209 68.434,23.359 68.201,23.438 67.83,23.438 67.597,23.512 65.011,23.512 69.888,23.512 70.029,23.359 
			70.105,23.209 70.262,22.98 70.338,22.828 70.338,22.6 70.416,22.371 70.416,21.99 70.338,21.764 70.338,21.535 70.262,21.307 
			70.184,21.078 70.029,20.928 70.029,20.85 		"/>
		<polygon fill-rule="evenodd" clip-rule="evenodd" fill="#010101" points="67.521,19.938 63.943,19.938 63.943,28.002 
			65.011,28.002 65.011,24.428 66.233,24.428 68.139,24.35 68.279,24.275 68.511,24.275 68.819,24.199 68.975,24.121 69.192,24.045 
			69.346,23.969 69.579,23.818 69.732,23.74 69.811,23.59 69.888,23.512 65.011,23.512 65.011,20.85 67.597,20.85 69.888,20.619 
			69.732,20.469 69.579,20.316 69.346,20.24 69.192,20.166 69.117,20.088 68.896,20.088 68.742,20.012 68.511,20.012 68.279,19.938 
			67.83,19.938 		"/>
		<polygon fill="#010101" points="67.521,19.938 63.943,19.938 63.943,28.002 65.011,28.002 65.011,24.428 66.233,24.428 
			68.139,24.35 68.279,24.275 68.511,24.275 68.819,24.199 68.975,24.121 69.192,24.045 69.346,23.969 69.579,23.818 69.732,23.74 
			69.811,23.59 69.888,23.512 65.011,23.512 65.011,20.85 67.597,20.85 69.888,20.619 69.732,20.469 69.579,20.316 69.346,20.24 
			69.192,20.166 69.117,20.088 68.896,20.088 68.742,20.012 68.511,20.012 68.279,19.938 67.83,19.938 		"/>
		<polygon fill-rule="evenodd" clip-rule="evenodd" fill="#010101" points="77.57,24.275 74.983,24.275 75.588,24.275 75.82,24.35 
			75.973,24.35 76.115,24.428 76.27,24.502 76.502,24.576 76.654,24.73 76.81,24.883 76.887,25.035 76.951,25.186 77.027,25.416 
			77.027,25.947 76.951,26.178 76.887,26.328 76.81,26.48 76.654,26.633 76.424,26.785 76.27,26.861 76.051,26.938 75.82,27.016 
			75.666,27.016 75.435,27.088 73.079,27.088 77.646,27.088 77.801,26.938 77.865,26.707 77.942,26.559 78.02,26.328 78.097,26.1 
			78.097,25.871 78.174,25.643 78.097,25.416 78.097,25.264 78.02,25.035 77.942,24.809 77.865,24.654 77.725,24.428 		"/>
		<polygon fill="#010101" points="77.57,24.275 74.983,24.275 75.588,24.275 75.82,24.35 75.973,24.35 76.115,24.428 76.27,24.502 
			76.502,24.576 76.654,24.73 76.81,24.883 76.887,25.035 76.951,25.186 77.027,25.416 77.027,25.947 76.951,26.178 76.887,26.328 
			76.81,26.48 76.654,26.633 76.424,26.785 76.27,26.861 76.051,26.938 75.82,27.016 75.666,27.016 75.435,27.088 73.079,27.088 
			77.646,27.088 77.801,26.938 77.865,26.707 77.942,26.559 78.02,26.328 78.097,26.1 78.097,25.871 78.174,25.643 78.097,25.416 
			78.097,25.264 78.02,25.035 77.942,24.809 77.865,24.654 77.725,24.428 		"/>
		<polygon fill-rule="evenodd" clip-rule="evenodd" fill="#010101" points="77.416,20.85 74.75,20.85 74.905,20.85 75.137,20.928 
			75.82,20.928 75.973,21.002 76.192,21.078 76.349,21.229 76.502,21.383 76.579,21.459 76.654,21.688 76.654,21.914 76.733,22.143 
			76.654,22.219 76.654,22.449 76.579,22.676 76.502,22.828 76.424,22.902 76.27,23.057 76.115,23.133 75.896,23.209 75.82,23.283 
			75.137,23.283 74.829,23.359 73.079,23.359 77.027,23.438 77.182,23.283 77.338,23.133 77.492,22.98 77.57,22.828 77.646,22.676 
			77.725,22.449 77.725,21.99 77.725,21.535 77.646,21.307 77.57,21.154 77.416,20.928 		"/>
		<polygon fill="#010101" points="77.416,20.85 74.75,20.85 74.905,20.85 75.137,20.928 75.82,20.928 75.973,21.002 76.192,21.078 
			76.349,21.229 76.502,21.383 76.579,21.459 76.654,21.688 76.654,21.914 76.733,22.143 76.654,22.219 76.654,22.449 
			76.579,22.676 76.502,22.828 76.424,22.902 76.27,23.057 76.115,23.133 75.896,23.209 75.82,23.283 75.137,23.283 74.829,23.359 
			73.079,23.359 77.027,23.438 77.182,23.283 77.338,23.133 77.492,22.98 77.57,22.828 77.646,22.676 77.725,22.449 77.725,21.99 
			77.725,21.535 77.646,21.307 77.57,21.154 77.416,20.928 		"/>
		<polygon fill-rule="evenodd" clip-rule="evenodd" fill="#010101" points="75.059,19.938 72.011,19.938 72.011,28.002 
			75.82,28.002 76.051,27.926 76.192,27.926 76.424,27.85 76.502,27.85 76.733,27.773 76.951,27.697 77.105,27.623 77.338,27.469 
			77.492,27.314 77.646,27.088 73.079,27.088 73.079,24.275 77.57,24.275 77.416,24.121 77.262,23.969 77.027,23.895 76.887,23.818 
			76.654,23.74 76.654,23.664 76.887,23.59 77.027,23.438 73.079,23.359 73.079,20.85 77.416,20.85 77.262,20.697 77.105,20.545 
			76.951,20.393 76.733,20.24 76.579,20.166 76.424,20.088 76.192,20.088 76.051,20.012 75.82,19.938 75.356,19.938 		"/>
		<polygon fill="#010101" points="75.059,19.938 72.011,19.938 72.011,28.002 75.82,28.002 76.051,27.926 76.192,27.926 
			76.424,27.85 76.502,27.85 76.733,27.773 76.951,27.697 77.105,27.623 77.338,27.469 77.492,27.314 77.646,27.088 73.079,27.088 
			73.079,24.275 77.57,24.275 77.416,24.121 77.262,23.969 77.027,23.895 76.887,23.818 76.654,23.74 76.654,23.664 76.887,23.59 
			77.027,23.438 73.079,23.359 73.079,20.85 77.416,20.85 77.262,20.697 77.105,20.545 76.951,20.393 76.733,20.24 76.579,20.166 
			76.424,20.088 76.192,20.088 76.051,20.012 75.82,19.938 75.356,19.938 		"/>
		<polygon fill-rule="evenodd" clip-rule="evenodd" fill="#010101" points="82.975,19.938 81.828,19.938 78.702,28.002 
			79.847,28.002 80.762,25.566 84.105,25.566 81.07,24.654 81.983,22.295 82.06,22.068 82.136,21.84 82.136,21.611 82.215,21.459 
			82.278,21.229 82.355,21.002 82.355,20.775 		"/>
		<polygon fill="#010101" points="82.975,19.938 81.828,19.938 78.702,28.002 79.847,28.002 80.762,25.566 84.105,25.566 
			81.07,24.654 81.983,22.295 82.06,22.068 82.136,21.84 82.136,21.611 82.215,21.459 82.278,21.229 82.355,21.002 82.355,20.775 		
			"/>
		<polygon fill-rule="evenodd" clip-rule="evenodd" fill="#010101" points="82.975,19.938 82.355,20.775 82.434,20.928 
			82.51,21.078 82.51,21.307 82.588,21.535 82.666,21.764 82.744,21.99 82.896,22.219 82.975,22.449 83.812,24.654 81.07,24.654 
			84.105,25.566 85.098,28.002 86.32,28.002 		"/>
		<polygon fill="#010101" points="82.975,19.938 82.355,20.775 82.434,20.928 82.51,21.078 82.51,21.307 82.588,21.535 
			82.666,21.764 82.744,21.99 82.896,22.219 82.975,22.449 83.812,24.654 81.07,24.654 84.105,25.566 85.098,28.002 86.32,28.002 		
			"/>
		<polygon fill-rule="evenodd" clip-rule="evenodd" fill="#010101" points="93.551,19.938 92.482,19.938 92.482,26.252 
			92.406,28.002 93.551,28.002 		"/>
		<polygon fill="#010101" points="93.551,19.938 92.482,19.938 92.482,26.252 92.406,28.002 93.551,28.002 		"/>
		<polygon fill-rule="evenodd" clip-rule="evenodd" fill="#010101" points="88.223,19.938 87.157,19.938 87.157,28.002 
			88.148,28.002 88.148,21.688 		"/>
		<polygon fill="#010101" points="88.223,19.938 87.157,19.938 87.157,28.002 88.148,28.002 88.148,21.688 		"/>
		<polygon fill-rule="evenodd" clip-rule="evenodd" fill="#010101" points="88.223,19.938 88.148,21.688 92.406,28.002 
			92.482,26.252 		"/>
		<polygon fill="#010101" points="88.223,19.938 88.148,21.688 92.406,28.002 92.482,26.252 		"/>
		<rect x="95.521" y="19.938" fill-rule="evenodd" clip-rule="evenodd" fill="#010101" width="1.063" height="8.064"/>
		<rect x="95.521" y="19.938" fill="#010101" width="1.063" height="8.064"/>
		<polygon fill-rule="evenodd" clip-rule="evenodd" fill="#010101" points="99.098,25.34 98.105,25.416 98.105,25.871 98.184,26.1 
			98.262,26.252 98.337,26.48 98.416,26.707 98.57,26.861 98.645,27.016 98.801,27.166 101.465,27.166 100.848,27.166 
			100.628,27.088 100.475,27.016 100.242,26.938 100.087,26.861 99.856,26.785 99.717,26.633 99.56,26.48 99.406,26.328 
			99.329,26.178 99.251,26.023 99.174,25.797 99.098,25.566 		"/>
		<polygon fill="#010101" points="99.098,25.34 98.105,25.416 98.105,25.871 98.184,26.1 98.262,26.252 98.337,26.48 98.416,26.707 
			98.57,26.861 98.645,27.016 98.801,27.166 101.465,27.166 100.848,27.166 100.628,27.088 100.475,27.016 100.242,26.938 
			100.087,26.861 99.856,26.785 99.717,26.633 99.56,26.48 99.406,26.328 99.329,26.178 99.251,26.023 99.174,25.797 99.098,25.566 
					"/>
		<polygon fill-rule="evenodd" clip-rule="evenodd" fill="#010101" points="103.74,20.697 101.311,20.697 101.465,20.775 
			101.992,20.775 102.225,20.85 102.379,20.928 102.521,21.002 102.674,21.154 102.828,21.229 102.982,21.459 103.061,21.611 
			103.137,21.84 103.215,22.068 103.291,22.295 104.27,22.219 104.27,21.914 104.206,21.764 104.206,21.535 104.129,21.307 
			103.973,21.154 103.897,20.928 103.818,20.928 		"/>
		<polygon fill="#010101" points="103.74,20.697 101.311,20.697 101.465,20.775 101.992,20.775 102.225,20.85 102.379,20.928 
			102.521,21.002 102.674,21.154 102.828,21.229 102.982,21.459 103.061,21.611 103.137,21.84 103.215,22.068 103.291,22.295 
			104.27,22.219 104.27,21.914 104.206,21.764 104.206,21.535 104.129,21.307 103.973,21.154 103.897,20.928 103.818,20.928 		"/>
		<polygon fill-rule="evenodd" clip-rule="evenodd" fill="#010101" points="101.233,19.785 100.848,19.785 100.628,19.859 
			100.396,19.859 100.166,19.938 99.933,20.012 99.791,20.088 99.56,20.166 99.329,20.24 99.174,20.393 99.02,20.545 98.879,20.697 
			98.725,20.85 98.645,21.002 98.57,21.154 98.493,21.383 98.416,21.611 98.416,22.449 98.493,22.6 98.57,22.828 98.645,23.057 
			98.725,23.057 98.801,23.209 98.943,23.359 99.174,23.512 99.329,23.664 99.56,23.74 99.56,23.818 99.717,23.895 99.856,23.895 
			100.087,23.969 100.319,24.045 100.551,24.121 100.77,24.199 101.079,24.275 101.311,24.35 101.605,24.428 101.838,24.502 
			102.07,24.502 102.302,24.576 102.442,24.654 102.521,24.654 102.75,24.809 102.982,24.883 103.137,25.035 103.291,25.186 
			103.434,25.416 103.434,25.566 103.508,25.797 103.508,25.871 103.434,26.1 103.356,26.328 103.291,26.48 103.137,26.633 
			102.982,26.785 102.75,26.938 102.598,27.016 102.379,27.088 102.146,27.088 101.992,27.166 98.801,27.166 98.943,27.314 
			99.098,27.469 99.329,27.623 99.482,27.697 99.717,27.85 99.791,27.85 99.933,27.926 100.166,28.002 100.319,28.002 
			100.551,28.076 100.77,28.076 101,28.154 102.07,28.154 102.302,28.076 102.442,28.076 102.674,28.002 102.905,27.926 
			103.061,27.85 103.137,27.773 103.356,27.697 103.588,27.547 103.74,27.395 103.897,27.314 104.051,27.088 104.129,26.938 
			104.27,26.785 104.348,26.559 104.424,26.406 104.502,26.178 104.502,25.416 104.424,25.186 104.348,24.959 104.27,24.73 
			104.206,24.576 104.051,24.428 103.897,24.275 103.74,24.121 103.588,23.969 103.356,23.895 103.137,23.74 102.982,23.664 
			102.828,23.59 102.598,23.59 102.442,23.512 102.225,23.438 101.916,23.359 101.683,23.283 101.387,23.209 101.079,23.209 
			100.848,23.133 100.551,23.057 100.319,22.98 100.087,22.902 99.933,22.828 99.856,22.752 99.717,22.676 99.637,22.523 
			99.482,22.371 99.482,22.143 99.406,21.914 99.406,21.84 99.482,21.611 99.56,21.383 99.717,21.229 99.856,21.078 99.933,21.002 
			100.166,20.928 100.319,20.85 100.551,20.775 101,20.775 101.311,20.697 103.74,20.697 103.588,20.545 103.434,20.393 
			103.215,20.316 103.061,20.166 102.828,20.088 102.75,20.088 102.598,20.012 102.379,19.938 102.146,19.859 101.916,19.859 
			101.683,19.785 101.465,19.785 		"/>
		<polygon fill="#010101" points="101.233,19.785 100.848,19.785 100.628,19.859 100.396,19.859 100.166,19.938 99.933,20.012 
			99.791,20.088 99.56,20.166 99.329,20.24 99.174,20.393 99.02,20.545 98.879,20.697 98.725,20.85 98.645,21.002 98.57,21.154 
			98.493,21.383 98.416,21.611 98.416,22.449 98.493,22.6 98.57,22.828 98.645,23.057 98.725,23.057 98.801,23.209 98.943,23.359 
			99.174,23.512 99.329,23.664 99.56,23.74 99.56,23.818 99.717,23.895 99.856,23.895 100.087,23.969 100.319,24.045 
			100.551,24.121 100.77,24.199 101.079,24.275 101.311,24.35 101.605,24.428 101.838,24.502 102.07,24.502 102.302,24.576 
			102.442,24.654 102.521,24.654 102.75,24.809 102.982,24.883 103.137,25.035 103.291,25.186 103.434,25.416 103.434,25.566 
			103.508,25.797 103.508,25.871 103.434,26.1 103.356,26.328 103.291,26.48 103.137,26.633 102.982,26.785 102.75,26.938 
			102.598,27.016 102.379,27.088 102.146,27.088 101.992,27.166 98.801,27.166 98.943,27.314 99.098,27.469 99.329,27.623 
			99.482,27.697 99.717,27.85 99.791,27.85 99.933,27.926 100.166,28.002 100.319,28.002 100.551,28.076 100.77,28.076 101,28.154 
			102.07,28.154 102.302,28.076 102.442,28.076 102.674,28.002 102.905,27.926 103.061,27.85 103.137,27.773 103.356,27.697 
			103.588,27.547 103.74,27.395 103.897,27.314 104.051,27.088 104.129,26.938 104.27,26.785 104.348,26.559 104.424,26.406 
			104.502,26.178 104.502,25.416 104.424,25.186 104.348,24.959 104.27,24.73 104.206,24.576 104.051,24.428 103.897,24.275 
			103.74,24.121 103.588,23.969 103.356,23.895 103.137,23.74 102.982,23.664 102.828,23.59 102.598,23.59 102.442,23.512 
			102.225,23.438 101.916,23.359 101.683,23.283 101.387,23.209 101.079,23.209 100.848,23.133 100.551,23.057 100.319,22.98 
			100.087,22.902 99.933,22.828 99.856,22.752 99.717,22.676 99.637,22.523 99.482,22.371 99.482,22.143 99.406,21.914 
			99.406,21.84 99.482,21.611 99.56,21.383 99.717,21.229 99.856,21.078 99.933,21.002 100.166,20.928 100.319,20.85 
			100.551,20.775 101,20.775 101.311,20.697 103.74,20.697 103.588,20.545 103.434,20.393 103.215,20.316 103.061,20.166 
			102.828,20.088 102.75,20.088 102.598,20.012 102.379,19.938 102.146,19.859 101.916,19.859 101.683,19.785 101.465,19.785 		"/>
		<polygon fill-rule="evenodd" clip-rule="evenodd" fill="#010101" points="113.636,19.938 112.261,19.938 110.293,25.566 
			110.214,25.871 110.137,26.1 110.06,26.328 109.983,26.48 109.904,26.707 109.83,26.861 109.301,28.002 110.293,28.002 
			112.646,21.229 		"/>
		<polygon fill="#010101" points="113.636,19.938 112.261,19.938 110.293,25.566 110.214,25.871 110.137,26.1 110.06,26.328 
			109.983,26.48 109.904,26.707 109.83,26.861 109.301,28.002 110.293,28.002 112.646,21.229 		"/>
		<polygon fill-rule="evenodd" clip-rule="evenodd" fill="#010101" points="113.636,19.938 112.646,21.229 112.646,28.002 
			113.636,28.002 		"/>
		<polygon fill="#010101" points="113.636,19.938 112.646,21.229 112.646,28.002 113.636,28.002 		"/>
		<polygon fill-rule="evenodd" clip-rule="evenodd" fill="#010101" points="107.551,19.938 105.941,19.938 105.941,28.002 
			107.011,28.002 107.011,21.154 		"/>
		<polygon fill="#010101" points="107.551,19.938 105.941,19.938 105.941,28.002 107.011,28.002 107.011,21.154 		"/>
		<polygon fill-rule="evenodd" clip-rule="evenodd" fill="#010101" points="107.551,19.938 107.011,21.154 109.301,28.002 
			109.83,26.861 109.83,26.785 109.752,26.559 109.752,26.406 109.676,26.178 109.597,25.947 109.455,25.643 		"/>
		<polygon fill="#010101" points="107.551,19.938 107.011,21.154 109.301,28.002 109.83,26.861 109.83,26.785 109.752,26.559 
			109.752,26.406 109.676,26.178 109.597,25.947 109.455,25.643 		"/>
		<polygon fill-rule="evenodd" clip-rule="evenodd" fill="#010101" points="116.456,20.619 116.3,20.775 116.146,20.928 
			116.069,21.002 115.914,21.154 115.838,21.307 115.683,21.459 115.618,21.688 115.541,21.84 115.465,22.068 115.387,22.219 
			115.311,22.449 115.232,22.676 115.156,22.902 115.156,23.133 115.078,23.359 115.078,24.576 115.156,24.809 115.156,25.035 
			115.232,25.264 115.311,25.49 115.387,25.719 115.465,25.871 115.541,26.1 115.541,26.178 115.683,26.328 115.76,26.559 
			115.914,26.707 116.069,26.861 116.223,27.016 116.377,27.166 116.519,27.314 118.963,27.242 118.654,27.242 118.424,27.166 
			118.27,27.166 118.051,27.088 117.817,27.016 117.664,26.938 117.434,26.785 117.291,26.707 117.137,26.559 116.983,26.406 
			116.906,26.328 116.753,26.178 116.674,26.023 116.597,25.871 116.456,25.643 116.377,25.49 116.3,25.264 116.3,25.035 
			116.223,24.809 116.223,24.576 116.146,24.35 116.146,23.818 116.223,23.59 116.223,23.057 116.3,22.828 116.377,22.676 
			116.377,22.449 116.456,22.219 116.597,22.068 116.674,21.914 116.753,21.764 116.906,21.611 116.983,21.459 117.137,21.383 
			117.291,21.229 117.511,21.078 117.664,21.002 117.897,20.928 118.051,20.85 118.27,20.775 118.501,20.697 118.963,20.697 		"/>
		<polygon fill="#010101" points="116.456,20.619 116.3,20.775 116.146,20.928 116.069,21.002 115.914,21.154 115.838,21.307 
			115.683,21.459 115.618,21.688 115.541,21.84 115.465,22.068 115.387,22.219 115.311,22.449 115.232,22.676 115.156,22.902 
			115.156,23.133 115.078,23.359 115.078,24.576 115.156,24.809 115.156,25.035 115.232,25.264 115.311,25.49 115.387,25.719 
			115.465,25.871 115.541,26.1 115.541,26.178 115.683,26.328 115.76,26.559 115.914,26.707 116.069,26.861 116.223,27.016 
			116.377,27.166 116.519,27.314 118.963,27.242 118.654,27.242 118.424,27.166 118.27,27.166 118.051,27.088 117.817,27.016 
			117.664,26.938 117.434,26.785 117.291,26.707 117.137,26.559 116.983,26.406 116.906,26.328 116.753,26.178 116.674,26.023 
			116.597,25.871 116.456,25.643 116.377,25.49 116.3,25.264 116.3,25.035 116.223,24.809 116.223,24.576 116.146,24.35 
			116.146,23.818 116.223,23.59 116.223,23.057 116.3,22.828 116.377,22.676 116.377,22.449 116.456,22.219 116.597,22.068 
			116.674,21.914 116.753,21.764 116.906,21.611 116.983,21.459 117.137,21.383 117.291,21.229 117.511,21.078 117.664,21.002 
			117.897,20.928 118.051,20.85 118.27,20.775 118.501,20.697 118.963,20.697 		"/>
		<polygon fill-rule="evenodd" clip-rule="evenodd" fill="#010101" points="118.963,19.785 118.424,19.785 118.207,19.859 
			117.973,19.859 117.74,19.938 117.588,20.012 117.369,20.088 117.213,20.166 116.983,20.24 116.828,20.393 116.597,20.469 
			116.456,20.619 118.963,20.697 119.337,20.697 119.569,20.775 119.8,20.85 120.02,20.928 120.174,21.002 120.406,21.078 
			120.56,21.229 120.715,21.383 120.868,21.535 121.01,21.688 121.166,21.84 121.242,22.068 121.396,22.219 121.473,22.449 
			121.551,22.6 121.551,22.828 121.627,23.057 121.627,23.283 121.704,23.512 121.704,24.428 121.627,24.654 121.627,24.883 
			121.551,25.109 121.551,25.34 121.473,25.566 121.396,25.719 121.242,25.871 121.166,26.1 121.01,26.252 120.933,26.406 
			120.868,26.406 120.715,26.559 120.56,26.707 120.406,26.861 120.174,26.938 120.02,27.016 119.8,27.088 119.569,27.166 
			119.416,27.166 119.184,27.242 118.963,27.242 116.519,27.314 116.674,27.469 116.906,27.623 117.061,27.697 117.213,27.773 
			117.434,27.85 117.588,27.926 117.817,28.002 118.051,28.076 118.27,28.076 118.501,28.154 119.416,28.154 119.646,28.076 
			119.878,28.076 120.097,28.002 120.33,27.926 120.482,27.85 120.715,27.773 120.933,27.623 121.166,27.469 121.319,27.395 
			121.473,27.242 121.627,27.088 121.77,26.938 121.924,26.785 122.078,26.559 122.232,26.406 122.311,26.178 122.311,26.1 
			122.465,25.947 122.541,25.719 122.619,25.566 122.619,25.34 122.684,25.109 122.761,24.883 122.761,24.199 122.838,23.969 
			122.761,23.74 122.761,23.057 122.684,22.828 122.619,22.6 122.619,22.371 122.541,22.219 122.465,21.99 122.311,21.84 
			122.311,21.764 122.232,21.535 122.078,21.383 121.924,21.154 121.77,21.002 121.627,20.85 121.473,20.697 121.319,20.545 
			121.166,20.469 120.933,20.316 120.868,20.24 120.637,20.166 120.482,20.088 120.252,20.012 120.02,19.938 119.878,19.859 
			119.646,19.859 119.416,19.785 119.184,19.785 		"/>
		<polygon fill="#010101" points="118.963,19.785 118.424,19.785 118.207,19.859 117.973,19.859 117.74,19.938 117.588,20.012 
			117.369,20.088 117.213,20.166 116.983,20.24 116.828,20.393 116.597,20.469 116.456,20.619 118.963,20.697 119.337,20.697 
			119.569,20.775 119.8,20.85 120.02,20.928 120.174,21.002 120.406,21.078 120.56,21.229 120.715,21.383 120.868,21.535 
			121.01,21.688 121.166,21.84 121.242,22.068 121.396,22.219 121.473,22.449 121.551,22.6 121.551,22.828 121.627,23.057 
			121.627,23.283 121.704,23.512 121.704,24.428 121.627,24.654 121.627,24.883 121.551,25.109 121.551,25.34 121.473,25.566 
			121.396,25.719 121.242,25.871 121.166,26.1 121.01,26.252 120.933,26.406 120.868,26.406 120.715,26.559 120.56,26.707 
			120.406,26.861 120.174,26.938 120.02,27.016 119.8,27.088 119.569,27.166 119.416,27.166 119.184,27.242 118.963,27.242 
			116.519,27.314 116.674,27.469 116.906,27.623 117.061,27.697 117.213,27.773 117.434,27.85 117.588,27.926 117.817,28.002 
			118.051,28.076 118.27,28.076 118.501,28.154 119.416,28.154 119.646,28.076 119.878,28.076 120.097,28.002 120.33,27.926 
			120.482,27.85 120.715,27.773 120.933,27.623 121.166,27.469 121.319,27.395 121.473,27.242 121.627,27.088 121.77,26.938 
			121.924,26.785 122.078,26.559 122.232,26.406 122.311,26.178 122.311,26.1 122.465,25.947 122.541,25.719 122.619,25.566 
			122.619,25.34 122.684,25.109 122.761,24.883 122.761,24.199 122.838,23.969 122.761,23.74 122.761,23.057 122.684,22.828 
			122.619,22.6 122.619,22.371 122.541,22.219 122.465,21.99 122.311,21.84 122.311,21.764 122.232,21.535 122.078,21.383 
			121.924,21.154 121.77,21.002 121.627,20.85 121.473,20.697 121.319,20.545 121.166,20.469 120.933,20.316 120.868,20.24 
			120.637,20.166 120.482,20.088 120.252,20.012 120.02,19.938 119.878,19.859 119.646,19.859 119.416,19.785 119.184,19.785 		"/>
	</g>
</g>
</svg>
