<?xml version="1.0" encoding="utf-8"?>
<!-- Generator: Adobe Illustrator 16.0.0, SVG Export Plug-In . SVG Version: 6.00 Build 0)  -->
<!DOCTYPE svg PUBLIC "-//W3C//DTD SVG 1.1//EN" "http://www.w3.org/Graphics/SVG/1.1/DTD/svg11.dtd">
<svg version="1.1" id="Layer_1" xmlns="http://www.w3.org/2000/svg" xmlns:xlink="http://www.w3.org/1999/xlink" x="0px" y="0px"
	 width="230px" height="44.995px" viewBox="0 0 230 44.995" enable-background="new 0 0 230 44.995" xml:space="preserve">
<g>
	
		<line opacity="0.2" fill="none" stroke="#989898" stroke-width="2" stroke-miterlimit="10" x1="146.88" y1="36.403" x2="214.36" y2="36.403"/>
	
		<line opacity="0.2" fill="none" stroke="#989898" stroke-width="2" stroke-miterlimit="10" x1="15.64" y1="36.403" x2="83.4" y2="36.403"/>
	<g>
		<g>
			<g>
				<path fill="#9C9C9B" d="M12.026,17.857c-0.619,0.992-1.357,1.725-2.217,2.199c-0.861,0.479-1.874,0.715-3.037,0.715
					c-2.035,0-3.673-0.674-4.914-2.02C0.62,17.406,0,15.627,0,13.408c0-2.268,0.62-4.066,1.858-5.398
					C3.1,6.68,4.778,6.014,6.892,6.014C8.007,6.014,9,6.27,9.87,6.779c0.869,0.512,1.619,1.279,2.247,2.301V6.377h4.799v1.867h-2.37
					v11.314c0,2.225-0.579,3.873-1.738,4.942c-1.16,1.066-2.953,1.6-5.384,1.6c-2.115,0-3.677-0.338-4.683-1.016
					c-1.007-0.678-1.558-1.762-1.648-3.25h2.506c0.172,0.85,0.543,1.463,1.116,1.836c0.572,0.377,1.434,0.565,2.59,0.565
					c1.698,0,2.91-0.358,3.635-1.073c0.724-0.711,1.087-1.914,1.087-3.604V17.857z M12.026,13.498c0-1.689-0.428-3.047-1.283-4.068
					C9.889,8.408,8.761,7.896,7.365,7.896c-1.408,0-2.542,0.502-3.402,1.51c-0.861,1.01-1.291,2.342-1.291,4.002
					c0,1.641,0.428,2.945,1.283,3.916c0.854,0.973,1.991,1.459,3.41,1.459c1.396,0,2.523-0.482,3.378-1.449
					C11.599,16.365,12.026,15.088,12.026,13.498z"/>
				<path fill="#9C9C9B" d="M29.732,16.143h2.354c-0.326,1.578-1.065,2.773-2.223,3.582c-1.161,0.811-2.697,1.213-4.611,1.213
					c-2.216,0-3.962-0.666-5.237-2.002c-1.276-1.338-1.914-3.158-1.914-5.465c0-2.24,0.662-4.041,1.984-5.408
					c1.318-1.365,3.062-2.049,5.229-2.049c2.296,0,4.069,0.701,5.315,2.102c1.245,1.402,1.867,3.404,1.867,6.006H20.774
					c0.042,1.529,0.467,2.727,1.275,3.592s1.909,1.297,3.295,1.297c1.206,0,2.188-0.25,2.954-0.752
					C29.063,17.758,29.541,17.051,29.732,16.143z M20.836,12.225h8.958c-0.171-1.43-0.642-2.523-1.41-3.281
					c-0.773-0.76-1.795-1.139-3.069-1.139c-1.285,0-2.325,0.393-3.12,1.178C21.4,9.768,20.947,10.846,20.836,12.225z"/>
				<path fill="#9C9C9B" d="M34.808,20.561v-4.889h2.021c0.18,1.053,0.621,1.865,1.32,2.443c0.698,0.576,1.594,0.865,2.688,0.865
					c1.021,0,1.857-0.23,2.506-0.691c0.646-0.461,0.969-1.039,0.969-1.738c0-0.566-0.217-1.004-0.652-1.314
					c-0.435-0.307-1.169-0.533-2.2-0.674l-2.641-0.381c-1.235-0.184-2.182-0.596-2.842-1.236c-0.657-0.643-0.986-1.477-0.986-2.5
					c0-1.312,0.499-2.383,1.495-3.203c0.999-0.82,2.302-1.229,3.91-1.229c0.982,0,1.823,0.158,2.521,0.477
					c0.697,0.32,1.28,0.812,1.746,1.482V6.377h1.806v4.693h-1.745c-0.08-0.973-0.469-1.754-1.162-2.348
					c-0.694-0.592-1.57-0.889-2.635-0.889c-1.073,0-1.918,0.211-2.526,0.631c-0.612,0.422-0.918,0.99-0.918,1.709
					c0,0.486,0.159,0.871,0.483,1.162c0.325,0.289,0.817,0.484,1.474,0.584l2.49,0.336c1.691,0.24,2.915,0.697,3.675,1.365
					s1.138,1.625,1.138,2.869c0,1.326-0.489,2.4-1.464,3.219c-0.979,0.818-2.281,1.229-3.91,1.229c-1.002,0-1.885-0.18-2.65-0.537
					c-0.763-0.361-1.424-0.908-1.981-1.648v1.809H34.808z"/>
				<path fill="#9C9C9B" d="M51.317,8.244h-2.794V6.377h2.794V3.355L53.836,2.4v3.977h4.421v1.867h-4.421v8.777
					c0,0.83,0.1,1.373,0.297,1.631c0.197,0.26,0.555,0.389,1.07,0.389c0.627,0,1.091-0.215,1.39-0.646
					c0.298-0.43,0.447-1.094,0.447-1.996h1.929v0.275c0,1.355-0.323,2.404-0.971,3.148c-0.648,0.746-1.57,1.115-2.764,1.115
					c-1.366,0-2.361-0.279-2.983-0.834c-0.624-0.557-0.934-1.441-0.934-2.656V8.244z"/>
				<path fill="#9C9C9B" d="M71.15,20.561v-2.43c-0.567,0.961-1.243,1.67-2.026,2.125c-0.785,0.455-1.713,0.682-2.786,0.682
					c-1.691,0-3.018-0.395-3.979-1.189c-0.961-0.795-1.441-1.881-1.441-3.258c0-1.498,0.614-2.625,1.844-3.379
					c1.23-0.752,3.065-1.131,5.505-1.131c0.335,0,0.997,0.01,1.988,0.031c0.336,0.01,0.593,0.02,0.774,0.029v-1.062
					c0-1.074-0.276-1.855-0.835-2.348c-0.556-0.49-1.446-0.734-2.673-0.734c-1.052,0-1.844,0.215-2.376,0.645
					c-0.53,0.43-0.86,1.111-0.994,2.043h-2.673c0.163-1.51,0.771-2.646,1.823-3.416s2.53-1.154,4.435-1.154
					c1.922,0,3.371,0.414,4.348,1.244c0.978,0.83,1.467,2.07,1.467,3.721v7.652h2.352v1.93H71.15z M72.093,0.26
					c-0.254,0.951-0.633,1.676-1.142,2.17c-0.503,0.496-1.121,0.744-1.851,0.744c-0.171,0-0.342-0.012-0.509-0.037
					s-0.341-0.064-0.524-0.113l-1.198-0.412c-0.132-0.039-0.263-0.07-0.388-0.09C66.355,2.5,66.221,2.49,66.078,2.49
					c-0.353,0-0.651,0.078-0.895,0.236c-0.243,0.156-0.44,0.402-0.592,0.734h-1.307c0.224-0.928,0.585-1.635,1.087-2.117
					c0.501-0.479,1.134-0.721,1.905-0.721c0.173,0,0.333,0.01,0.486,0.031c0.151,0.02,0.286,0.049,0.41,0.09l1.213,0.441
					c0.162,0.049,0.325,0.09,0.485,0.113c0.162,0.023,0.311,0.039,0.441,0.039c0.363,0,0.668-0.092,0.91-0.273
					c0.243-0.184,0.431-0.451,0.563-0.805H72.093z M71.028,13.941c-0.485-0.033-0.93-0.055-1.327-0.07
					c-0.401-0.016-0.748-0.023-1.042-0.023c-1.741,0-3.025,0.234-3.855,0.699c-0.83,0.467-1.244,1.184-1.244,2.156
					c0,0.678,0.272,1.227,0.82,1.646c0.545,0.422,1.269,0.631,2.169,0.631c1.379,0,2.469-0.424,3.273-1.275
					c0.804-0.852,1.206-2.004,1.206-3.461V13.941z"/>
				<path fill="#9C9C9B" d="M84.091,20.938c-2.227,0-3.986-0.668-5.275-2.01c-1.291-1.34-1.938-3.162-1.938-5.457
					c0-2.301,0.646-4.111,1.938-5.438c1.289-1.326,3.049-1.99,5.275-1.99c2.228,0,3.981,0.662,5.262,1.982s1.919,3.135,1.919,5.445
					c0,2.307-0.642,4.127-1.927,5.465C88.058,20.271,86.309,20.938,84.091,20.938z M84.091,18.904c1.416,0,2.529-0.48,3.333-1.441
					c0.805-0.961,1.207-2.305,1.207-4.025c0-1.719-0.399-3.062-1.198-4.023c-0.801-0.961-1.913-1.441-3.342-1.441
					c-1.427,0-2.54,0.48-3.341,1.441c-0.799,0.961-1.199,2.305-1.199,4.023c0,1.732,0.396,3.074,1.192,4.031
					C81.537,18.426,82.653,18.904,84.091,18.904z"/>
			</g>
			<g>
				<path fill="#010101" d="M108.916,6.377v12.314h2.367v1.869h-4.797V18.1c-0.657,0.971-1.381,1.688-2.172,2.148
					c-0.789,0.461-1.699,0.689-2.732,0.689c-1.701,0-2.955-0.412-3.766-1.234c-0.811-0.826-1.215-2.115-1.215-3.865V8.305h-2.354
					V6.377h4.874v9.461c0,1.072,0.258,1.879,0.774,2.42c0.515,0.541,1.287,0.812,2.309,0.812c1.264,0,2.277-0.406,3.043-1.221
					c0.766-0.816,1.146-1.9,1.146-3.256V8.305h-2.641V6.377H108.916z"/>
				<path fill="#010101" d="M117.634,18.631h3.008v1.93h-7.896v-1.93h2.37V8.244h-2.37V6.377h4.799v2.371
					c0.545-0.975,1.198-1.678,1.957-2.119c0.76-0.439,1.701-0.662,2.826-0.662c0.201,0,0.353,0.004,0.455,0.008
					c0.099,0.006,0.195,0.018,0.287,0.039v2.291c-0.069-0.01-0.217-0.025-0.438-0.053c-0.225-0.025-0.396-0.037-0.518-0.037
					c-1.497,0-2.619,0.449-3.363,1.344c-0.743,0.895-1.116,2.24-1.116,4.031V18.631z"/>
				<path fill="#010101" d="M126.506,2.219h-2.369V0.35h4.874v8.73c0.628-0.992,1.37-1.727,2.225-2.201
					c0.854-0.477,1.87-0.713,3.043-0.713c2.033,0,3.671,0.672,4.912,2.018c1.241,1.348,1.86,3.131,1.86,5.346
					c0,2.268-0.619,4.068-1.86,5.406c-1.241,1.336-2.923,2.002-5.049,2.002c-1.103,0-2.091-0.256-2.967-0.773
					c-0.876-0.516-1.628-1.283-2.256-2.307v2.703h-4.782v-1.93h2.369V2.219z M129.011,13.438c0,1.691,0.43,3.047,1.289,4.07
					c0.861,1.023,1.991,1.533,3.386,1.533c1.407,0,2.542-0.5,3.402-1.504c0.86-1.002,1.29-2.336,1.29-4.008
					c0-1.631-0.429-2.934-1.283-3.91c-0.854-0.977-1.989-1.465-3.409-1.465c-1.374,0-2.498,0.488-3.37,1.465
					C129.445,10.596,129.011,11.869,129.011,13.438z"/>
				<path fill="#010101" d="M153.521,20.561v-2.43c-0.568,0.961-1.243,1.67-2.027,2.125s-1.716,0.682-2.785,0.682
					c-1.691,0-3.019-0.395-3.979-1.189c-0.963-0.795-1.442-1.881-1.442-3.258c0-1.498,0.615-2.625,1.845-3.379
					c1.23-0.752,3.064-1.131,5.503-1.131c0.333,0,0.996,0.01,1.99,0.031c0.332,0.01,0.592,0.02,0.774,0.029v-1.062
					c0-1.074-0.278-1.855-0.836-2.348c-0.557-0.49-1.448-0.734-2.672-0.734c-1.054,0-1.845,0.215-2.376,0.645
					c-0.532,0.43-0.863,1.111-0.995,2.043h-2.672c0.163-1.51,0.77-2.646,1.822-3.416c1.052-0.77,2.529-1.154,4.434-1.154
					c1.922,0,3.373,0.414,4.351,1.244c0.977,0.83,1.463,2.07,1.463,3.721v7.652h2.354v1.93H153.521z M153.399,13.941
					c-0.488-0.033-0.928-0.055-1.328-0.07c-0.399-0.016-0.747-0.023-1.043-0.023c-1.739,0-3.024,0.234-3.854,0.699
					c-0.83,0.467-1.246,1.184-1.246,2.156c0,0.678,0.274,1.227,0.82,1.646c0.547,0.422,1.269,0.631,2.172,0.631
					c1.375,0,2.466-0.424,3.272-1.275c0.804-0.852,1.206-2.004,1.206-3.461V13.941z"/>
				<path fill="#010101" d="M159.552,20.561v-1.93h2.368V8.244h-2.368V6.377h4.799v2.461c0.657-0.971,1.382-1.686,2.172-2.141
					c0.789-0.457,1.699-0.684,2.732-0.684c1.7,0,2.956,0.408,3.766,1.229c0.809,0.82,1.214,2.107,1.214,3.857v7.531h2.4v1.93h-7.532
					v-1.93h2.611V11.1c0-1.074-0.258-1.879-0.775-2.422c-0.516-0.541-1.285-0.811-2.308-0.811c-1.265,0-2.279,0.404-3.044,1.223
					c-0.763,0.812-1.146,1.898-1.146,3.256v6.285h2.643v1.93H159.552z"/>
				<path fill="#010101" d="M188.252,20.561v-2.43c-0.566,0.961-1.241,1.67-2.026,2.125c-0.784,0.455-1.714,0.682-2.785,0.682
					c-1.692,0-3.018-0.395-3.979-1.189c-0.961-0.795-1.441-1.881-1.441-3.258c0-1.498,0.614-2.625,1.844-3.379
					c1.229-0.752,3.064-1.131,5.505-1.131c0.333,0,0.996,0.01,1.987,0.031c0.335,0.01,0.593,0.02,0.775,0.029v-1.062
					c0-1.074-0.278-1.855-0.835-2.348c-0.556-0.49-1.448-0.734-2.671-0.734c-1.054,0-1.847,0.215-2.376,0.645
					c-0.533,0.43-0.865,1.111-0.995,2.043h-2.673c0.162-1.51,0.768-2.646,1.822-3.416c1.054-0.77,2.528-1.154,4.434-1.154
					c1.923,0,3.372,0.414,4.349,1.244c0.978,0.83,1.467,2.07,1.467,3.721v7.652h2.352v1.93H188.252z M188.131,13.941
					c-0.485-0.033-0.928-0.055-1.328-0.07s-0.745-0.023-1.04-0.023c-1.74,0-3.027,0.234-3.855,0.699
					c-0.832,0.467-1.246,1.184-1.246,2.156c0,0.678,0.273,1.227,0.821,1.646c0.544,0.422,1.269,0.631,2.169,0.631
					c1.377,0,2.469-0.424,3.273-1.275c0.804-0.852,1.206-2.004,1.206-3.461V13.941z"/>
			</g>
			<g>
				<path fill="#C72026" d="M197.128,20.561v-6.91h2.278c0.061,1.629,0.5,2.861,1.322,3.697c0.818,0.836,1.993,1.254,3.521,1.254
					c1.316,0,2.365-0.305,3.148-0.912c0.786-0.605,1.177-1.412,1.177-2.414c0-0.758-0.245-1.379-0.735-1.867
					c-0.49-0.486-1.385-0.961-2.681-1.428l-4.206-1.535c-1.346-0.475-2.33-1.096-2.952-1.865c-0.621-0.77-0.935-1.752-0.935-2.947
					c0-1.66,0.592-3.012,1.771-4.061C200.014,0.525,201.553,0,203.445,0c1.011,0,1.933,0.17,2.763,0.51
					c0.83,0.338,1.618,0.861,2.367,1.57V0.35h2.308v6.59h-2.26c-0.062-1.527-0.515-2.721-1.359-3.576
					c-0.846-0.854-2.004-1.283-3.47-1.283c-1.175,0-2.135,0.307-2.877,0.918c-0.746,0.613-1.116,1.385-1.116,2.318
					c0,0.646,0.218,1.193,0.652,1.639c0.436,0.443,1.135,0.834,2.096,1.168l5.101,1.807c1.296,0.467,2.251,1.107,2.862,1.922
					c0.613,0.814,0.919,1.85,0.919,3.104c0,1.834-0.599,3.27-1.799,4.312c-1.201,1.045-2.857,1.564-4.974,1.564
					c-1.183,0-2.217-0.199-3.104-0.598c-0.884-0.4-1.623-1.004-2.209-1.814v2.141H197.128z"/>
				<path fill="#C72026" d="M219.056,18.48h3.567v2.08h-9.082v-2.08h2.778V2.34h-2.778V0.35h8.747c1.628,0,2.855,0.115,3.683,0.342
					c0.822,0.227,1.545,0.609,2.161,1.145c0.618,0.549,1.084,1.193,1.396,1.938C229.843,4.518,230,5.365,230,6.316
					c0,1.994-0.622,3.488-1.868,4.479c-1.243,0.992-3.123,1.488-5.632,1.488h-3.444V18.48z M219.056,2.34v7.895h3.444
					c1.659,0,2.862-0.312,3.605-0.934c0.745-0.623,1.115-1.617,1.115-2.984c0-1.377-0.394-2.385-1.184-3.021
					c-0.789-0.639-2.029-0.955-3.721-0.955H219.056z"/>
			</g>
		</g>
		<text transform="matrix(1 0 0 1 91.1802 41.5864)" fill="#333333" font-family="'Museo-500'" font-size="14.3845">MAPAS</text>
	</g>
</g>
</svg>
